<?xml version="1.0" encoding="UTF-8" standalone="no"?><!DOCTYPE svg PUBLIC "-//W3C//DTD SVG 1.1//EN" "http://www.w3.org/Graphics/SVG/1.1/DTD/svg11.dtd"><svg width="100%" height="100%" viewBox="0 0 1536 1024" version="1.1" xmlns="http://www.w3.org/2000/svg" xmlns:xlink="http://www.w3.org/1999/xlink" xml:space="preserve" xmlns:serif="http://www.serif.com/" style="fill-rule:evenodd;clip-rule:evenodd;stroke-linejoin:round;stroke-miterlimit:2;"><g id="背景"><path d="M634.008,434.033c2.9,0.559 2.808,0.521 5.76,0.933c17.608,3.054 31.529,19.232 44.285,33.435c0.736,1.471 0.707,1.389 1.766,2.584c16.881,19.039 27.575,23.109 41.981,29.696c11.552,5.282 11.525,-0.597 11.597,-0.756c3.804,-8.469 5.284,-8.578 2.811,-17.562c-0.451,-0.981 -0.901,-1.963 -1.352,-2.944c-1.586,-3.54 -1.849,-3.466 -4.462,-4.316c-1.603,-1.107 -1.278,-1.492 -3.21,-2.218c-0.413,-0.155 -14.089,-0.158 -7.391,12.663c2.518,4.821 2.871,7.778 -2.534,6.95c-15.144,-2.32 -21.303,-16.247 -22.236,-18.356c-3.052,-6.901 -2.141,-7.082 -2.073,-14.671c0.02,-2.214 2.866,-16.183 13.794,-22.255c13.691,-7.607 20.37,-3.235 25.033,-2.656c4.725,0.587 6.983,3.891 6.936,0.415c-0.081,-5.953 -4.372,-19.876 14.187,-39.173c0.614,-0.638 7.019,-7.298 8.058,-7.591c1.992,-0.563 4.78,1.98 5.11,2.281c7.696,7.02 23.241,19.259 19.877,44.597c-0.065,0.489 -0.658,0.8 -0.731,1.288c-0.433,2.871 7.008,-1.895 8.407,-2.243c18.373,-4.573 28.409,6.27 30.103,8.1c4.54,4.905 5.328,7.657 7.104,12.956c0.634,5.784 0.816,5.722 0.672,11.539c-4.215,25.981 -27.545,26.429 -27.838,22.957c-0.255,-3.021 1.504,-2.502 3.453,-10.152c-0.735,-3.446 -0.73,-3.467 -3.363,-5.806c-4.842,-2.912 -7.163,-0.286 -7.527,-0.173c-1.582,0.567 -1.505,0.535 -2.795,1.581c-3.359,3.956 -3.705,3.69 -4.327,5.877c-0.827,2.909 -3.387,6.813 -2.93,8.664c0.153,0.621 0.818,1.059 0.902,1.692c0.054,0.407 -0.498,0.703 -0.528,1.112c-0.045,0.614 0.632,0.244 3.391,6.908c3.522,8.508 9.027,1.239 9.688,1.062c0.357,-0.096 0.637,0.534 1.002,0.475c0.245,-0.04 0.05,-0.62 0.289,-0.686c0.212,-0.059 0.195,0.157 2.705,-0.458c1.732,-0.424 15.505,-7.259 16.839,-7.921c7.755,-3.848 31.147,-27.423 33.761,-32.2c1.088,-1.987 1.376,-1.724 16.748,-14.978c7.975,-6.876 19.707,-10.272 26.238,-10.622c5.023,0.695 4.931,0.632 10.054,0.921c22.187,6.008 19.586,22.128 19.402,26.008c-0.209,0.708 -1.775,6.013 -3.681,8.455c-2.206,2.559 -4.376,3.896 -4.466,4.096c-0.707,1.562 -1.049,1.146 -2.675,1.492c-1.598,0.34 -14.7,3.132 -19.609,-5.717c-0.629,-1.133 -0.499,-6.412 -0.485,-6.971c1.387,-0.935 1.47,-0.673 2.912,-1.576l1.303,0.292c0.283,1.941 0.251,1.834 0.78,3.81c2.999,4.023 8.373,3.441 9.412,3.432c0.483,-0.004 1.027,0.143 1.447,-0.097c0.266,-0.152 -0.039,-0.838 0.264,-0.882c0.962,-0.141 1.107,1.253 4.114,-0.505c5.234,-3.061 5.338,-11.772 4.362,-13.155c-0.178,-0.253 -0.815,0.027 -0.887,-0.274c-0.095,-0.401 0.832,-0.546 -0.383,-2.662c-5.424,-9.444 -12.432,-12.22 -27.555,-9.672c-1.473,0.365 -2.945,0.731 -4.418,1.096c-20,8.427 -25.779,21.085 -33.169,25.907c0.018,0.634 -1.17,0.88 -1.153,1.514c0.024,0.861 1.097,1.284 1.232,1.337c0.744,0.293 0.651,-0.595 1.384,-0.306c1.786,-0.661 3.881,-2.342 14.443,-1.114c1.939,0.43 3.877,0.86 5.816,1.29c1.257,0.29 6.71,1.549 14.295,7.45c1.217,1.062 1.152,1 2.609,1.712c2.929,3.08 21.937,23.067 46.345,25.987c2.895,0.872 2.816,0.751 5.795,0.949c8.688,0.325 8.604,1.123 17.276,0.339c0.843,-0.076 18.613,0.351 25.977,-1.361c2.681,-0.624 3.04,-4.572 3.054,-4.626c1.405,-5.99 0.148,-10.653 -0.092,-11.545c-0.809,-5.052 -1.107,-4.948 -3.839,-9.237c-1.235,-2.326 -1.293,-2.199 -3.118,-4.019c-0.523,-0.493 -1.046,-0.987 -1.568,-1.48c-1.89,-1.834 -1.775,-1.889 -4.096,-3.147c-5.283,-2.147 -4.908,-3.024 -10.504,-4.1c-3.728,-0.534 -3.642,-0.422 -7.31,-0.386c-0.451,0.06 -11.836,-0.257 -16.637,8.257c-0.129,0.229 -0.65,2.093 -0.693,2.6c-0.124,1.456 0.512,1.204 0.835,1.964c0.165,2.522 0.591,4.795 0.669,5.208c-1.134,0.05 -1.095,0.702 -2.88,0.128c-0.624,-0.201 -0.472,-0.283 -1.074,-0.477c-4.328,-4.184 -3.584,-5.901 -1.403,-12.467c5.196,-5.206 5.053,-5.211 5.529,-5.625c1.106,-0.953 0.644,-1.937 12.979,-5.518c4.101,0.321 6.669,-0.117 6.991,-0.157c11.593,3.396 11.699,2.8 12.702,3.096c0.498,0.147 8.047,5.167 8.739,5.627c0.402,0.506 0.803,1.012 1.205,1.518c3.838,4.455 3.687,4.45 4.024,4.824c11.384,16.423 4.423,25.36 4.731,27.874c0.387,3.165 11.56,-2.005 12.27,-2.419c1.201,-0.39 2.402,-0.781 3.603,-1.171l0.411,-0.49c1.573,-0.605 1.503,-0.539 2.919,-1.446c1.387,-1.189 1.37,-1.191 1.498,-1.284c16.386,-11.93 12.523,-25.346 2.698,-29.553l-1.616,-0.718c-2.135,-0.345 -2.024,-0.34 -4.202,-0.38c-5.427,0.618 -5.129,3.109 -10.43,1.872c0.112,-0.388 0.885,-3.069 1.903,-4.669c1.555,-1.165 2.906,-2.142 3.161,-2.326c3.459,0.299 3.406,0.055 6.794,-0.436c10.711,0.985 14.365,6.861 15.492,7.255c1.609,0.563 0.742,1.161 1.391,2.712c7.86,18.815 -11.148,31.673 -15.711,32.663c-7.152,1.551 0.086,2.86 0.314,2.845c5.804,-0.374 5.716,-0.796 11.484,-0.84c1.908,0.089 3.816,0.177 5.724,0.266c5.256,0.886 5.164,1.004 10.326,2.072c10.787,8.52 12.145,3.507 25.699,1.751c2.397,-0.31 5.588,-2.091 11.593,-2.377c0.673,-0.032 7.958,-0.38 8.387,-0.758c2.525,-2.224 -3.806,-2.461 -4.196,-2.475c-16.602,-0.621 -33.557,-9.79 -36.109,-4.734c-0.819,1.622 -4.44,2.747 -5.434,3.382c-2.951,-0.047 -2.973,0.093 -3.184,-0.05c-0,-0 -0.909,-2.589 -0.988,-2.814c2.041,-2.187 5.898,-4.828 6.445,-5.203c3.92,-2.685 4.047,-2.577 9.082,-2.379c7.851,1.684 7.801,1.683 8.516,1.811c14.389,3.914 14.193,4.67 28.971,6.214l4.322,0.269c2.177,0.201 12.88,1.188 27.28,1.71c2.196,0.17 2.096,0.159 4.348,0.043c10.401,0.566 38.194,-0.058 51.838,0.566c2.902,0.143 2.815,0.142 5.69,-0.015c40.472,-0.848 40.432,-0.285 148.319,0.377c13.434,0.243 13.344,0.142 15.825,0.151l4.408,0.009c1.263,-0.004 9.781,-0.802 9.775,1.926c-0.007,2.717 -5.917,2.05 -6.817,2.063c-9.489,-0.66 -11.694,0.797 -11.699,0.798l-1.44,-0.049c-7.483,-0.161 -16.709,-0.361 -93.555,0.473c-7.997,0.087 -7.894,0.813 -15.843,0.805c-8.523,-0.008 -96.957,-0.094 -106.535,0.406c-6.45,0.024 -6.339,-0.008 -12.898,0.154c-9.361,0.158 -9.301,0.151 -10.11,0.171c-2.974,0.075 -2.854,0.432 -5.766,0.873c-8.02,-0.231 -7.912,0.085 -15.88,1.074c-4.189,1.318 -4.338,0.556 -18.767,4.461c-0.465,0.074 -2.739,0.438 -5.704,1.43c-7.046,2.488 -12.247,0.086 -17.162,-4.118l-0.559,-0.73c-3.024,-2.141 -3.035,-2.16 -6.673,-2.305c-39.384,0.35 -40.202,-0.628 -44.211,3.551c-18.033,18.795 -48.46,11.328 -55.158,9.775c-2.602,-0.733 -2.546,-0.782 -5.276,-0.743c-0.519,-0.31 -4.514,-3.202 -8.903,-2.719c-1.549,0.171 -0.921,-1.082 -3.188,-2.165c-4.997,-2.385 -5.027,-2.05 -9.981,-4.502c-1.927,-0.707 -1.849,-0.585 -3.827,-0.734c-1.825,-1.045 -9.088,-5.202 -26.281,-0.398c-3.696,1.033 -9.075,1.647 -6.55,5.745c13.414,21.771 -11.715,34.032 -18.786,19.496c-1.259,-2.588 0.131,-10.673 -0.13,-12.431c-0.107,-0.717 0.393,-0.481 4.957,-7.582c3.167,-4.927 0.018,-5.022 -5.498,-7.075c-6.794,-2.529 -10.671,-3.381 -11.621,-3.59l-4.245,-0.576l-1.415,-0.152c-3.602,-0.57 -3.519,-0.426 -7.191,-0.257c-1.924,-0.009 -3.848,-0.018 -5.771,-0.026c-2.322,-0.027 -3.584,-0.522 -10.067,0.135c-1.899,0.169 -3.798,0.338 -5.697,0.507c-2.264,0.149 -2.183,0.191 -4.403,0.702c-4.412,1.433 -7.599,1.537 -4.467,4.934c0.978,0.47 1.956,0.941 2.934,1.411c2.129,0.986 2.011,1.054 4.409,1.525c3.545,1.139 3.514,0.919 7.16,1.441c5.904,2.375 6.981,1.444 9.564,7.178c1.68,3.729 -2.05,16.852 -12.412,19.815c-4.306,1.231 -4.175,1.587 -8.575,2.066c-4.428,-0.083 -4.331,0.025 -8.719,-0.336c-7.573,-2.662 -8.637,-2.131 -9.663,1.377c-2.672,9.136 -9.25,14.689 -10.506,17.097c-0.258,0.494 -7.816,8.702 -10.006,8.776c-0.35,0.012 -1.633,0.055 -3.85,-2.073c-1.428,-1.447 -1.355,-1.4 -2.972,-2.679c-9.801,-8.946 -13.717,-19.493 -14.436,-21.431c-0.168,-0.868 -0.336,-1.737 -0.504,-2.605c-1.783,-1.519 -1.978,-0.939 -4.174,-0.183c-0.575,0.227 -2.977,1.176 -7.322,2.46c-5.634,-0.618 -9.073,-1.176 -9.858,-1.304c-7.909,-2.587 -8.671,-1.653 -9.883,-4.232c-1.3,-2.767 -2.506,-1.72 -4.154,-4.312c-0.191,-0.301 -0.071,-0.301 -1.783,-4.083l-1.19,-5.652c1.788,-6.344 2.329,-6.415 9.939,-9.751c2.94,-0.268 2.865,-0.31 5.594,-1.433c0.948,-0.133 1.897,-0.266 2.845,-0.399c2.328,-1.227 2.592,-0.671 4.527,-2.398c7.871,-3.372 -1.185,-4.951 -1.601,-5.024c-1.568,-0.273 -1.486,-0.288 -2.995,-0.581c-2.371,-0.281 -4.743,-0.563 -7.114,-0.844l-1.428,-0.102c-4.354,-0.194 -10.615,-0.502 -11.538,-0.547c-20.927,0.401 -29.507,5.215 -31.769,6.485c-3.148,1.825 -3.929,2.297 -2.202,5.52l0.643,0.498c0.628,1.367 1.257,2.734 1.885,4.101c0.351,0.657 6.127,8.878 -0.014,17.508c-2.66,3.737 -12.054,9.868 -19.957,-4.646c-0.116,-5.494 -0.218,-5.408 0.267,-10.865c0.703,-1.532 5.598,-8.64 2.065,-10.22c-1.853,-0.829 -9.248,-2.389 -10.061,-2.561c-10.494,-2.215 -22.577,1.327 -24.46,1.879c-3.207,0.94 -3.037,1.141 -5.888,2.89c-2.176,0.575 -2.083,0.623 -4.147,1.504c-11.408,4.081 -11.169,4.731 -23.068,7.099c-13.916,2.77 -21.566,1.921 -30.109,0.288c-3.417,-1.381 -3.288,-1.716 -7.02,-1.654c-1.397,-0.963 -1.259,-1.082 -2.833,-1.673c-2.019,-1.575 -2.047,-1.372 -4.29,-2.628c-3.37,-2.394 -3.172,-2.514 -6.071,-5.402c-1.557,-1.761 -1.771,-1.335 -3.916,-2.075c-5.105,-2.038 -17.148,-0.719 -39.265,-1.208c-4.086,0.008 -4.186,0.097 -7.349,2.888c-9.38,9.033 -18.954,3.889 -22.806,3.118c-5.655,-1.132 -5.389,-1.871 -11.54,-2.782c-2.218,-0.589 -2.153,-0.384 -4.401,-1.005c-1.884,-0.198 -3.767,-0.396 -5.651,-0.594c-10.02,-2.071 -9.991,-1.495 -20.173,-1.473c-3.626,-0.807 -3.64,-0.692 -24.509,-0.948c-44.633,-0.486 -99.61,-0.594 -107.923,-0.587c-1.536,0.001 -86.171,-1.941 -102.201,-1.447c-2.928,-0.572 -2.842,-0.571 -5.791,-0.496c-5.735,-0.003 -5.664,-0.227 -11.367,0.203c-1.026,-0.127 -2.051,-0.255 -3.077,-0.382c-6.341,0.58 -9.089,0.713 -9.103,-1.939c-0.015,-2.896 1.709,-0.909 6.203,-1.651c0.57,-0.094 0.857,-0.141 7.211,-0.256c6.561,-0.127 6.486,0.027 13.044,-0.728c19.639,0.321 192.415,0.089 200.075,-0.283c2.232,0.157 2.119,0.155 4.339,-0.049c5.765,-0.131 5.65,-0.135 11.459,-0.214c1.465,-0.042 2.931,-0.085 4.396,-0.127c8.683,-0.606 13.219,-0.759 14.37,-0.798c3.658,0.137 3.583,0.104 7.188,-0.393c3.731,-0.856 19.627,-1.232 36.045,-6.815c3.666,-0.655 3.581,-0.568 7.134,-1.657c1.319,-0.084 8.095,-0.517 15.22,6.426c0.133,0.13 0.071,0.157 0.961,2.119l1.11,1.568c-1.428,0.466 -2.855,0.932 -4.283,1.398c-0.84,-0.887 -0.878,-0.812 -5.713,-4.492c-3.677,-1.986 -3.769,-1.517 -7.306,-1.46c-15.821,3.118 -15.384,5.42 -31.621,6.26c-4.737,0.245 -2.655,2.713 -1.622,2.937c1.712,0.372 1.82,-1.482 21.757,2.493c3.663,0.73 3.732,0.143 11.577,2.719c0.214,0.07 0.207,0.029 2.791,0.392c2.234,0.501 2.196,0.476 4.361,0.017c4.938,-1.351 4.732,-1.817 7.178,-4.495l1.465,-1.423c0.919,-0.404 1.839,-0.807 2.758,-1.211l1.462,0.06c14.46,-0.175 18.901,0.17 20.539,0.297c0.345,-0.094 0.667,0.453 1.012,0.358c0.214,-0.058 4.015,-1.502 -0.76,-2.664c-0.932,-0.718 -0.789,-0.753 -1.808,-1.391c-12.735,-7.99 -15.748,-21.67 -12.823,-28.438c3.811,-8.82 7.341,-10.367 14.218,-12.735c2.074,0.175 2.005,0.227 4.119,0.078c4.635,0.069 4.67,0.032 8.781,2.252c2.245,2.928 3.413,3.217 1.332,6.235c-0.989,-0.545 -3.904,-3.143 -8.641,-2.982c-10.455,0.356 -11.722,3.997 -12.974,5.561c-1.201,2.766 -1.251,2.716 -1.557,5.755c0.014,2.966 -2.872,18.18 27.492,27.351c2.51,0.187 3.731,1.175 3.632,-1.333c-0.014,-0.362 -0.419,-0.214 -1.25,-4.359c-0.476,-2.179 -0.253,-2.143 -0.764,-4.365c0.295,-11.878 3.842,-11.29 3.409,-15.532c-0.126,-1.238 0.203,-1.092 1.072,-1.485c2.916,-1.317 3.561,-9.57 19.668,-15.069c8.535,-2.914 8.695,-3.094 17.41,-1.004c1.991,0.509 1.899,0.443 3.954,0.593c16.351,7.346 17.637,17.815 11.676,23.536c-4.465,-2.511 -2.801,-3.649 -2.223,-6.809c-0.076,-2.659 0.635,-5.038 -4.429,-7.648c-1.59,-1.295 -1.512,-1.248 -3.266,-2.381c-2.735,-1.342 -2.644,-1.379 -5.669,-1.736c-0.614,-0.114 -0.593,-0.083 -7.259,-0.526c-3.685,0.106 -3.616,-0.003 -7.148,0.88c-3.05,1.185 -3.042,0.979 -5.868,2.584c-4.978,2.82 -5.143,2.596 -8.766,7.122c-1.078,1.346 -1.017,1.278 -1.793,2.84c-2.355,2.638 -2.151,2.703 -3.24,6.128c-0.168,1.394 -0.336,2.789 -0.504,4.183c-0.033,1.817 -1.118,10.311 2.801,14.505c1.955,0.37 3.91,0.739 5.865,1.109c20.202,0.791 20.123,0.431 37.379,0.151c2.996,-0.3 2.91,-0.203 5.789,-1.026c4.964,-0.623 14.75,-3.611 20.198,-5.967c2.387,-1.067 2.651,-0.66 4.325,-2.738c1.603,-0.45 5.194,-1.459 17.075,-11.907c1.622,-1.25 1.592,-1.189 3.117,-2.634c5.777,-6.208 12.626,-9.04 17.319,-11.375c2.898,-0.483 2.821,-0.416 5.619,-1.171c2.953,-0.634 2.858,-0.528 5.751,-0.872c2.958,0.05 3.021,-0.618 8.616,0.564c8.011,2.327 1.746,-2.988 1.524,-3.16c-10.134,-10.025 -9.685,-10.396 -20.673,-19.426c-2.43,-1.477 -2.264,-1.691 -5.026,-2.465c-3.652,-2.801 -5.667,-3.223 -6.22,-3.339c-10.67,-2.236 -10.78,-1.768 -21.41,0.835c-6.965,1.705 -11.101,11.632 -11.636,12.916c-0.382,2.87 -0.404,2.817 0.395,5.678c1.918,3.036 2.919,7.336 11.231,7.391c6.268,0.041 7.326,-1.668 8.736,-2.905c0.923,-1.308 0.899,-1.201 1.542,-2.789c0.781,-0.653 0.782,-0.551 2.683,-1.556c0.648,0.439 0.747,-0.215 1.357,0.198c0.455,0.308 -0.129,0.529 0.338,0.951c0.267,0.241 0.771,0.051 1.038,0.292c-0.179,2.565 -0.162,2.55 -0.193,2.77c-0.128,0.906 -0.342,0.746 -0.477,1.7c-3.429,8.174 -9.516,8.992 -14.993,9.345c-1.888,-0.407 -3.775,-0.814 -5.663,-1.221c-0.977,-0.431 -1.955,-0.863 -2.932,-1.294l-2.474,-1.717c-6.022,-4.75 -8.951,-15.775 -2.949,-25.275c7.715,-12.213 24.567,-12.616 26.948,-12.673Zm169.868,13.121c-0.942,0.368 -1.885,0.735 -2.827,1.103c-0.853,-0.441 -0.399,-0.849 -1.321,-1.326c-0.082,-0.042 -0.744,-0.385 -1.154,0.046c-0.318,0.335 0.124,1.038 -0.195,1.373c-0.889,0.66 -0.845,0.532 -1.614,1.198c-2.296,1.99 -3.041,0.054 -5.574,1.631c-0.149,0.093 1.122,0.488 -0.625,2.102c-9.185,8.484 -8.625,11.176 -10.472,16.492c-2.343,-1.475 -2.259,-1.416 -4.259,-3.346c1.634,-3.595 1.556,-3.521 3.238,-7.126c4.075,-8.732 14.24,-17.761 20.179,-17.631c1.338,0.029 1.026,-0.526 1.693,-1.009c5.13,-3.721 32.607,-2.552 30.282,26.005c-0.594,7.294 -1.693,6.927 -5.629,13.125c-0.441,-0.355 -1.124,-0.303 -1.565,-0.658c-0.392,-0.315 0.237,-0.548 -0.186,-0.75c-0.776,-0.372 -0.81,0.273 -1.64,-0.124c-0.63,-4.481 0.841,-11.187 -12.955,-16.746c-1.511,-3.056 -2.48,-2.376 -5.298,-0.429c-0.473,0.482 -0.946,0.964 -1.419,1.446c-4.49,2.079 -7.849,5.303 -8.443,5.873c-0.141,0.152 -0.843,-0.494 -1.773,2.564c-3.874,5.721 -2.92,6.111 -4.796,12.73c-0.318,1.122 -3.523,2.864 -3.451,-2.69c0.112,-8.709 3.067,-13.509 3.696,-14.53c0.511,-0.931 1.022,-1.862 1.533,-2.793c3.147,-3.647 2.901,-3.78 3.174,-4.092c0.832,-0.621 1.663,-1.243 2.495,-1.864c0.722,-0.478 4.081,-4.027 11.769,-4.113c7.108,-0.08 7.208,5.03 11.546,4.544c0.982,-0.11 5.243,-3.748 -7.423,-9.873c-0.127,-0.134 0.203,-1.204 -1.388,-1.464c0,0 -5.151,0.306 -5.598,0.333Zm-33.63,-33.259c-0.936,-3.286 -1.082,-5.269 -3.721,-3.184c-1.863,1.473 -2.507,2.439 -2.738,5.727c-1.107,1.43 -1.133,1.402 -1.196,1.545c-6.279,14.344 -1.328,24.453 -0.327,28.495c-0.299,0.665 -1.331,0.795 -1.63,1.46c-0.202,0.45 0.333,0.951 0.326,1.444c-0.007,0.509 -0.582,1.021 -0.368,1.484c0.958,2.07 1.751,1.27 1.725,1.448c-0.235,1.615 -1.963,0.187 -2.191,1.755c-2.369,-3.997 -5.709,-8.935 -6.992,-13.213c-0.305,-2.284 -0.206,-2.311 -0.329,-2.467c-0.365,-0.465 -0.609,0.101 -0.998,-0.395c-1.1,-4.118 -2.821,-4.094 -1.28,-14.535c6.311,-1.572 2.046,-4.269 1.527,-5.734c3.032,-8.536 6.202,-12.288 13.262,-19.821c4.919,-5.248 6.594,1.048 12.454,7.013c2.887,2.939 6.906,13.049 7.38,14.242c-0.368,1.04 -1.348,1.789 -1.716,2.828c-0.108,0.304 -0.595,1.681 2.674,3.021l0.173,2.76c-0.316,0.101 -4.083,1.3 -2.845,3.018c0.136,0.189 0.195,0.093 2.632,1.25l-0.488,1.656c-0.53,1.098 -1.3,0.733 -1.367,2.828c-0.023,0.716 -0.148,0.64 -0.172,1.396c-1.055,5.026 -3.771,8.758 -5.766,11.746c-7.266,10.883 -5.404,13.706 -9.049,18.359c-0.647,0.826 -4.897,0.632 -1.24,-4.124c2.436,-3.168 2.206,-7.69 3.923,-13.18c0.291,-0.178 3.512,-2.148 3.236,-2.783c-0.293,-0.675 -1.353,-0.795 -1.647,-1.47c3.25,-7.049 5.359,-23.314 -3.254,-32.572Zm-96.969,62.215c0.851,0.957 1.702,1.914 2.553,2.871c1.995,0.265 2.315,-0.196 3.244,1.577c1.297,2.475 1.869,0.561 4.035,-1.289c1.646,1.125 1.632,1.123 1.778,1.215c0.517,0.325 0.544,0.096 1.07,0.426c-1.51,8.514 -4.506,6.114 -7.325,6.172c-1.561,0.032 -1.447,0.119 -2.967,0.672c-22.663,2.363 -30.753,9.387 -38.666,12.406c-0.911,0.5 -1.821,1.001 -2.732,1.501c-0.559,0.349 -1.119,0.697 -1.678,1.046c-0.038,-0.074 -1.492,-4.886 -2.906,-1.497c-0.671,1.61 -0.635,1.547 -1.273,3.1c-2.176,1.429 -2.244,1.175 -4.526,2.56c-2.573,-1.476 -2.521,-1.585 -2.777,-1.592c-2.712,-0.081 -1.695,1.274 -2.423,3.827c-12.906,5.665 -12.992,5.222 -26.455,9.17c-1.057,-1.307 -1.184,-1.083 -2.029,-2.51c-0.371,-0.627 -0.474,-0.333 -3.849,-0.152c-0.312,-0.001 -0.306,-0.702 -0.618,-0.703c-3.818,-0.008 -3.252,1.513 -3.553,1.449c-0.43,-0.091 -0.158,-1.4 -5.787,-1.037c-4.569,0.294 -4.714,-0.632 -8.862,1.288c-5.894,2.728 -7.337,-0.084 -7.616,-0.628c-0.393,-0.766 -0.489,-0.624 -3.665,-2.862c12.942,0.264 48.734,5.306 79.022,-22.213c0.209,-0.017 2.614,-0.214 2.614,-0.214c0.147,-0.14 0.024,-0.183 0.334,-2.517c10.65,-10.588 26.502,-15.893 35.054,-12.064Zm201.162,-1.037c1.562,2.841 1.076,3.072 1.294,3.247c0.34,0.273 6.739,-0.903 7.06,-0.925c3.779,1.828 5.682,3.166 6.144,3.491c-0.08,0.387 0.547,0.703 0.467,1.089c-0.238,1.149 -1.246,2.077 -1.365,3.244c-0.049,0.481 1.501,1.532 2.178,1.206c0.098,-0.047 -0.432,-0.419 0.872,-1.049c0.261,-0.126 0.268,-0.015 3.621,-0.204c1.437,1.432 2.73,2.615 2.972,2.837c0.141,0.232 -0.491,1.544 1.527,2.505c0.616,0.293 0.672,-0.085 1.341,0.233c6.151,4.318 12.043,10.428 21.868,14.156c-1.531,2.636 -1.465,2.59 -3.421,5.009c-2.39,-1.146 -2.339,-1.115 -4.675,-2.241c-2.05,-0.988 -2,-0.858 -4.093,-1.875c-0.008,-0.017 0.639,-3.651 -5.671,-3.009c-4.496,-3.264 -23.246,-10.511 -25.967,-11.302c-8.117,-2.36 -17.029,-3.394 -18.528,-3.568c-3.656,-1.127 -3.651,-1.145 -7.293,-0.258l-1.41,0.066c-1.689,-1.829 -2.085,-1.74 -1.95,-4.169c0.097,-1.747 1.276,-1.357 1.405,-1.514c0.279,-0.337 -0.092,-0.962 0.187,-1.299c5.475,-5.474 21.508,-5.65 23.437,-5.671Zm-148.292,-36.104c0.59,2.836 0.82,3.565 3.7,2.809c0.444,0.872 -0.456,0.939 -0.009,1.817c0.108,0.212 0.843,1.656 2.04,2.172c0.871,0.375 1.92,-0.278 2.844,-0.066c0.568,0.13 0.884,0.78 1.404,1.041c1.434,0.719 1.223,0.898 2.48,1.822c-8.923,-1.079 -15.277,-2.58 -21.605,6.417c-1.458,2.074 -1.299,2.477 0.667,4.13c2.723,0.236 2.81,-0.142 4.085,-2.59c7.477,-4.209 8.248,-5.068 18.76,0.078c0.519,2.223 0.735,2.334 3.064,2.66c0.477,0.512 0.953,1.024 1.43,1.536c0.015,1.059 -0.665,2.052 -0.649,3.112c0.006,0.392 1.358,1.631 1.818,1.615c0.673,-0.023 1.246,-0.608 1.918,-0.631c1.293,2.717 1.622,2.544 2.989,7.526c-0.218,0.168 -1.159,-0.177 -1.9,1.467c-0.781,1.732 -1.007,1.533 -2.043,3.11c-1.806,-4.327 -1.288,-4.589 -4.574,-7.991c-3.325,-3.442 -3.444,-3.235 -3.662,-3.582c-0.326,-0.52 -0.64,-1.021 -6.981,-3.189c-0.284,-0.356 -2.037,-0.059 -2.061,-4.172c-0.007,-1.303 0.336,-1.619 -0.37,-1.636c-3.572,-0.088 -2.403,1.643 -3.82,3.996c-1.019,1.692 -0.309,1.795 -0.454,2.634c-17.598,7.296 -6.449,20.976 -10.597,20.656c-0.623,-0.048 -0.766,-0.059 -5.098,-5.923c2.119,-5.294 -0.823,-4.506 -2.584,-5.125c-0.035,-0.207 -0.387,-0.26 -0.422,-0.467c-0.116,-0.683 -0.211,-0.597 -0.439,-1.246c0.332,-1.031 1.264,-1.799 1.596,-2.829c0.638,-1.98 -0.443,-1.603 -2.378,-2.538c-0.943,-3.207 -0.957,-3.244 0.007,-6.473c1.835,-0.95 3.061,-0.671 2.121,-2.52c-0.313,-0.616 -1.172,-0.831 -1.485,-1.448c1.532,-3.631 2.467,-6.807 7.093,-10.341c0.593,0.049 6.608,0.547 7.342,-1.163c0,-0 -1.236,-2.455 -1.344,-2.669c3.631,-0.896 3.463,-1.116 7.117,-1.998Zm34.215,93.499c0.616,0.358 1.221,-0.569 2.371,1.378c0.619,1.049 0.617,0.937 1.187,1.903c-1.412,1.02 -1.089,1.399 -2.759,1.992c-4.575,1.628 1.422,3.182 2.541,5.133c0.543,0.946 0.735,0.674 1.515,1.388c1.452,3.388 0.795,6.396 3.738,4.036c1.729,-1.386 1.013,-1.732 0.46,-3.884c-0.273,-1.065 -0.242,-11.971 -0.239,-13.012c0.012,-4.084 3.894,0.15 4.117,0.393c1.077,1.175 0.965,1.173 2.017,2.302c0.117,0.223 1.467,2.784 1.467,2.784c0.666,0.37 0.711,-0.435 1.368,-0.07c1.967,0.953 10.268,2.842 0.516,16.679c-9.421,13.368 -11.43,12.155 -13.23,10.576c-8.712,-7.643 -11.772,-15.145 -12.4,-16.684c0.732,-3.074 1.327,-4.295 -1.86,-4.599c0.163,-5.493 2.832,-3.94 9.189,-10.315Zm86.706,-38.258c5.021,-0.065 4.925,-0.179 10.025,-0.013c3.523,1.373 3.551,1.402 7.168,0.431c16.99,3.137 23.304,6.501 26.155,7.756c-0.555,1.453 -1.111,2.905 -1.666,4.358c-5.082,0.431 -5.169,-0.094 -9.911,1.952c-6.444,2.78 -7.015,3.328 -12.951,-0.515c-2.18,-1.411 -3.622,-1.202 -8.861,-3.935c-0.121,-0.216 -1.512,-2.705 -1.512,-2.705c-1.613,-1.331 -1.738,-0.181 -4.169,1.208c-21.086,-5.834 -48.856,4.219 -28.544,-4.005c9.402,-3.807 16.975,-3.649 18.481,-3.617c2.987,0.097 2.916,0.072 5.785,-0.915Zm-177.008,0.371c2.873,0.631 2.876,0.582 5.716,-0.366c8.184,-0.066 8.086,-0.097 14.353,-0.076c2.896,0.936 2.825,0.797 5.786,0.921c1.083,0.099 7.904,0.722 13.334,2.662c15.288,5.462 -2.916,3.082 -3.269,3.03c-14.989,-2.215 -20.146,3.257 -27.151,2.374c-1.52,-0.192 -0.909,1.137 -3.204,2.134c-9.188,3.989 -9.457,7.852 -17.309,3.369c-0.223,-0.429 0.068,-1.014 -0.155,-1.443c-0.155,-0.298 -0.694,-0.227 -0.864,-0.517c-0.058,-0.099 0.146,-1.743 -1.76,-1.435c-0.268,0.043 -0.21,0.139 -2.831,1.873l-4.273,-0.364l-0.258,-0.552c3.722,-5.188 3.991,-4.834 4.272,-5.3c0.223,-0.371 -0.062,-0.918 0.162,-1.29c1.3,-0.649 3.92,-1.956 17.451,-5.019Zm99.36,-13.621c0.343,2.304 0.223,2.348 0.37,2.485c0.516,0.485 0.696,-0.185 1.178,0.281c0.282,0.273 0.011,0.869 0.294,1.142c0.288,0.277 0.881,-0.01 1.168,0.267c0.293,0.274 -0.029,0.9 0.264,1.174c0,0 2.15,0.504 2.337,0.548c0.591,2.412 1.194,2.007 1.739,2.586c3.941,3.627 4.057,3.513 4.384,4.334c0.914,2.298 1.696,1.484 2.14,1.934c1.646,1.668 -3.364,6.592 -3.821,7.041c-4.67,0.837 -4.274,4.288 -4.28,4.328c-2.857,3.038 -2.801,2.983 -5.714,5.876c-2.275,-0.426 -2.214,-0.475 -4.54,-0.151c-2.249,-2.121 -2.246,-2.039 -4.411,-4.292c2.057,-4.318 2.435,-4.589 7.238,-4.677c0.246,-0.198 5.444,-3.096 4.005,-6.8c-1.558,-4.012 -2.34,-3.929 -2.717,-3.889c-3.718,0.393 -3.922,-0.939 -5.276,-0.288c-0.386,0.185 0.177,0.94 -0.081,1.282c-0.209,0.277 -0.863,-0.124 -1.026,0.183c-0.445,0.842 -0.437,4.999 -0.436,5.435c-0.384,0.446 -2.335,2.718 -5.916,4.375c-1.239,-1.437 -1.224,-1.434 -1.338,-1.552c-0.393,-0.409 -0.432,-0.213 -0.817,-0.622c-1.38,-1.469 -1.472,-1.258 -2.965,-2.677c-3.184,-3.024 2.281,-3.169 12.903,-17.767c3.295,-4.528 4.276,-1.844 5.319,-0.553Zm-21.338,25.862c0.252,2.298 0.172,2.239 0.895,4.417c-3.946,10.195 -6.868,10.745 -9.641,13.377c-2.826,-2.078 -3.614,-2.869 -4.491,-1.691c-0,0 -1.274,4.151 -1.385,4.512c-7.675,2.938 -13.618,-1.103 -13.593,2.491c0.004,0.53 0.58,0.949 0.583,1.479c0.469,0.473 0.938,0.947 1.407,1.42c0.548,0.189 0.841,0.856 1.389,1.045c0,0 2.631,-0.673 2.86,-0.731c1.29,0.001 12.021,0.007 15.8,-3.25c1.967,2.749 1.95,2.789 1.73,6.203c-2.749,1.378 -2.52,1.724 -5.951,2.725c-2.972,0.316 -2.916,0.146 -5.796,1.3c-1.598,-0.117 -16.67,-1.217 -17.289,-10.115c-0.394,-5.659 1.169,-5.858 10.007,-7.607c4.032,2.73 5.942,3.054 6.814,-1.684c6.057,-4.032 6.179,-3.98 8.237,-7.638c4.986,-8.862 5.687,-8.796 6.555,-8.715c1.734,0.162 1.238,0.816 1.869,2.464Zm32.966,7.066c0.323,1.75 0.292,1.68 1.197,3.168c0.436,0.812 3.649,6.801 6.161,9.733c1.014,3.949 1.229,6.202 6.552,3.884c1.395,0.664 11.848,5.641 19.286,1.054c0.814,-1.059 1.628,-2.118 2.442,-3.177c0.226,-1.14 0.451,-2.281 0.677,-3.421c1.881,1.945 1.732,1.992 4.103,3.433c-7.308,22.093 -35.689,6.608 -37.886,3.019c-0.406,-0.663 -7.715,-6.86 -8.399,-7.441c-0.039,-0.225 -0.483,-2.817 -0.483,-2.817c-0.136,-0.511 -0.777,-0.785 -0.914,-1.296c5.217,-1.342 2.683,-8.398 7.264,-6.14Zm6.873,-8.467c1.471,0.519 2.941,1.038 4.412,1.557c4.406,6.964 3.125,7.492 3.582,8.026c0.035,0.041 6.32,4.617 8.221,5.656c4.754,2.597 11.722,3.127 12.773,3.207l0.454,1.262c-0.226,1.14 -0.451,2.281 -0.677,3.421c-0.332,-0.037 -0.295,0.002 -4.168,-0.162c-6.574,0.112 -6.562,0.289 -7.14,-0.078c-0.247,-0.157 0.053,-0.795 -0.235,-0.846c-0.099,-0.018 0.211,0.456 -1.099,0.607c-0.2,0.023 -0.221,-0.455 -0.421,-0.432c-0.332,-1.241 0.128,-1.317 -0.648,-2.422c-0.217,-0.31 -0.2,-0.738 -0.388,-1.067c-1.775,-3.116 -2.597,-0.943 -6.128,0.426c-4.244,-3.699 -6.858,-4.603 -8.663,-11.809c-0.268,-2.949 0.012,-2.948 -1.135,-5.744c0.419,-0.534 0.839,-1.068 1.258,-1.602Zm141.237,2.705c4.02,1.721 14.915,3.911 15.94,4.231c0.52,1.175 -0.176,1.494 1.006,2.274c2.409,1.591 2.445,3.119 4.837,1.388c1.558,-1.128 1.665,-0.263 4.246,0.339c3.906,0.911 3.759,-0.259 7.043,-2.526c5.006,4.275 3.188,5.185 2.818,6.823c-12.474,-0.648 -12.514,-0.032 -24.574,-3.219c-1.419,-0.375 -11.591,-3.063 -17.446,-5.692c1.965,-3.279 2.338,-3.064 6.13,-3.618Zm-372.903,4.993c3.175,2.239 3.272,2.096 3.665,2.862c0.279,0.544 1.722,3.356 7.616,0.628c4.148,-1.92 4.293,-0.994 8.862,-1.288c5.629,-0.362 5.357,0.946 5.787,1.037c0.3,0.064 -0.265,-1.458 3.553,-1.449c0.312,0.001 0.306,0.702 0.618,0.703c0.317,0.348 0.182,0.973 0.499,1.321c1.477,1.619 2.408,2.03 2.658,2.14c0.733,0.324 0.586,-0.709 1.328,-0.382c-1.902,0.502 -6.356,1.677 -24.527,1.656c-7.744,-0.009 -20.403,-5.56 -19.402,-7.487c0.784,-1.509 2.434,-0.977 9.344,0.258Zm104.794,13.983c1.342,-13.691 7.165,-4.885 7.433,-4.255c6.785,15.951 -2.662,17.324 -5.989,13.225c-1.62,-1.996 -1.345,-2.061 -1.617,-4.617c0.058,-1.451 0.116,-2.902 0.173,-4.353Zm207.649,-5.673c0.342,0.032 0.325,-0.146 4.297,-0.106c5.608,8.119 2.79,21.131 -7.158,15.818c1.918,-3.272 2.36,-4.432 -1.192,-5.702c1.519,-5.261 1.28,-5.312 4.053,-10.01Zm-113.787,-5.85c0.137,-0.015 0.442,-1.26 1.551,-0.165c2.701,2.669 7.917,5.7 -4.214,14.889c-7.067,-0.03 -6.533,-2.143 -7.087,-2.853c3.256,-2.599 2.879,-2.848 5.538,-5.991c0.216,-0.014 2.7,-0.173 2.7,-0.173c0.692,-0.419 -0.556,-3.616 -0.671,-3.911l0.538,-0.439c0.548,-0.452 1.097,-0.904 1.645,-1.356Zm-0.315,-60.271c11.337,20.896 5.255,22.531 3.474,22.256c-1.649,-0.255 -0.578,-7.692 -4.204,-13.995c-1.604,-2.789 -1.724,-2.615 -3.332,-5.47c4.399,-2.089 3.931,-2.688 4.062,-2.791Zm207.635,58.523c24.021,-1.208 23.99,-1.137 26.047,-1.493c2.375,-0.411 0.883,2.593 -1.443,3.485c-0.41,0.157 -0.389,0.14 -5.69,1.83c-0.732,-0.441 -1.116,-1.334 -1.848,-1.775c-2.883,-1.737 -3.649,0.06 -4.395,0.516c-0.924,0.564 -0.949,0.166 -2.721,-0.217c-4.583,-0.991 -2.817,3.876 -2.803,4.188c-1.443,0.096 -2.886,0.192 -4.329,0.288c0.37,-1.637 2.188,-2.548 -2.818,-6.823Zm-231.799,-74.799c7.626,2.095 7.668,1.943 14.581,5.852c-0.685,3.49 0.003,4.001 -3.062,5.981c-1.864,-1.028 -1.761,-1.011 -3.341,-2.303c-1.257,-0.923 -1.046,-1.102 -2.48,-1.822c-0.521,-0.261 -0.836,-0.911 -1.404,-1.041c-0.924,-0.212 -1.973,0.441 -2.844,0.066c-1.197,-0.516 -1.932,-1.96 -2.04,-2.172c-0.447,-0.878 0.453,-0.946 0.009,-1.817c0.194,-0.914 0.388,-1.829 0.582,-2.743Zm-44.472,41.878c0.566,0.337 3.857,2.295 6.715,4.762c0.201,0.174 5.285,4.563 0.303,3.314c-8.035,-2.015 -8.071,-1.346 -17.31,-1.232c1.52,-0.553 1.407,-0.64 2.967,-0.672c2.819,-0.058 5.815,2.342 7.325,-6.172Zm259.139,31.446c4.682,-0.016 15.766,1.312 17.132,1.475c-3.284,2.267 -3.137,3.437 -7.043,2.526c-2.581,-0.602 -2.689,-1.467 -4.246,-0.339c-2.392,1.731 -2.427,0.203 -4.837,-1.388c-1.181,-0.78 -0.486,-1.099 -1.006,-2.274Zm-200.086,-67.472c3.718,2.717 3.38,2.935 6.592,6.345c-1.99,1.784 -1.722,1.932 -3.096,4.281c-3.479,-2.03 -3.153,-2.408 -6.559,-4.645c3.065,-1.98 2.378,-2.491 3.062,-5.981Zm30.824,21.543c2,1.929 1.915,1.871 4.259,3.346c-1.779,5.936 -1.739,7.834 -2.295,8.185c-0.791,0.5 -5.452,0.995 -1.964,-11.531Zm-30.675,61.023c0.554,0.71 0.02,2.823 7.087,2.853c-3.486,4.087 -3.361,4.447 -8.611,5.788c0.22,-3.414 0.237,-3.454 -1.73,-6.203l3.255,-2.438Zm17.105,-80.973c0.422,1.029 5.126,12.492 2.207,13.724c-1.833,0.774 -3.307,-4.031 -4.345,-6.132c0.228,-1.568 1.956,-0.14 2.191,-1.755c0.026,-0.178 -0.767,0.622 -1.725,-1.448c-0.214,-0.462 0.361,-0.974 0.368,-1.484c0.007,-0.494 -0.528,-0.994 -0.326,-1.444c0.299,-0.665 1.331,-0.795 1.63,-1.46Zm218.877,71.176c-0.719,0.352 -1.897,1.665 -11.766,2.713c-0.014,-0.313 -1.78,-5.18 2.803,-4.188c1.771,0.383 1.797,0.78 2.721,0.217c0.746,-0.455 1.512,-2.252 4.395,-0.516c0.732,0.441 1.116,1.334 1.848,1.775Zm-230.059,-45.239c2.99,12.561 -1.244,12.179 -2.043,11.669c-0.495,-0.316 -0.309,-0.443 -1.9,-7.093c1.036,-1.576 1.262,-1.378 2.043,-3.11c0.741,-1.644 1.682,-1.299 1.9,-1.467Zm11.151,27.34c2.435,2.509 2.279,2.643 5.53,4.077c-4.802,0.088 -5.181,0.36 -7.238,4.677c-2.375,-1.918 -2.339,-1.885 -4.209,-4.379c3.581,-1.657 5.533,-3.929 5.916,-4.375Zm88.767,-19.012c-0.279,0.337 0.092,0.962 -0.187,1.299c-0.129,0.156 -1.308,-0.233 -1.405,1.514c-0.135,2.429 0.261,2.34 1.95,4.169c-2.938,0.174 -2.845,0.242 -5.764,0.681c-0.545,-1.072 -1.09,-2.144 -1.635,-3.216c5.438,-3.674 5.291,-3.805 7.041,-4.446Zm-205.677,21.622c0.445,1.008 -0.347,1.362 1.044,2.365c0.959,0.692 0.794,0.729 1.807,1.46l0.258,0.552c-8.137,0.486 -8.084,0.529 -8.788,0.525c-6.504,-0.035 5.122,-4.679 5.68,-4.901Zm277.093,2.538c2.679,1.345 6.196,2.972 6.738,3.222c-3.792,0.554 -4.166,0.339 -6.13,3.618c-1.343,-0.611 -2.686,-1.221 -4.029,-1.832c1.956,-2.419 1.89,-2.373 3.421,-5.009Zm-32.003,-2.52c2.938,1.03 7.766,1.683 6.561,4.013c-0.203,0.391 -7.568,0.349 -8.227,0.345c0.555,-1.453 1.111,-2.905 1.666,-4.358Zm-165.197,-39.332c0.145,-0.839 -0.565,-0.942 0.454,-2.634c1.417,-2.353 0.248,-4.085 3.82,-3.996c0.706,0.017 0.363,0.333 0.37,1.636c0.024,4.113 1.777,3.816 2.061,4.172c-1.776,0.214 -1.784,-0.151 -6.706,0.822Zm26.385,-11.822c0.34,0.464 0.195,0.438 0.547,0.918c0.189,0.258 0.181,0.234 2.444,3.161c-0.131,0.103 0.337,0.702 -4.062,2.791c-1.095,-1.28 -0.952,-1.296 -2.025,-2.589c1.374,-2.349 1.106,-2.497 3.096,-4.281Zm12.317,84.519l0.758,1.458c0.18,2.352 0.36,4.703 0.54,7.055c-0.78,-0.714 -0.972,-0.442 -1.515,-1.388c-1.12,-1.951 -7.117,-3.505 -2.541,-5.133c1.67,-0.594 1.347,-0.973 2.759,-1.992Zm-111.31,-36.149c-0.223,0.371 0.062,0.918 -0.162,1.29c-0.281,0.467 -0.549,0.113 -4.272,5.3c-1.013,-0.73 -0.847,-0.768 -1.807,-1.46c-1.391,-1.003 -0.599,-1.357 -1.044,-2.365c6.756,-2.711 6.742,-2.458 7.284,-2.766Zm143.851,24.976c3.531,-1.368 4.353,-3.542 6.128,-0.426c0.187,0.329 0.17,0.757 0.388,1.067c0.775,1.105 0.316,1.181 0.648,2.422c-1.943,-0.571 -3.099,0.159 -7.163,-3.063Zm-36.098,7.892c0.211,-0.43 2.799,-5.697 4.574,-3.856c0.246,0.255 -0.217,7.908 -0.259,8.595l-0.758,-1.458c-0.57,-0.965 -0.567,-0.854 -1.187,-1.903c-1.15,-1.947 -1.755,-1.02 -2.371,-1.378Zm9.885,-118.572c-0.492,-0.101 -1.888,-2.297 -6.458,2.543c0.231,-3.288 0.874,-4.254 2.738,-5.727c2.638,-2.085 2.785,-0.102 3.721,3.184Zm-30.912,110.72c-2.494,2.218 -2.581,2.022 -5.876,2.82c0.111,-0.361 1.385,-4.512 1.385,-4.512c0.877,-1.178 1.665,-0.387 4.491,1.691Zm-7.915,-3.905c-0.871,4.738 -2.782,4.414 -6.814,1.684c3.397,-1.039 3.269,-1.192 6.814,-1.684Zm157.518,-39.825c3.255,1.755 3.132,1.798 5.773,4.286c-3.352,0.189 -3.359,0.078 -3.621,0.204c-1.304,0.63 -0.774,1.001 -0.872,1.049c-0.677,0.327 -2.227,-0.725 -2.178,-1.206c0.119,-1.167 1.127,-2.095 1.365,-3.244c0.08,-0.387 -0.547,-0.703 -0.467,-1.089Zm-66.731,-2.628c0.829,0.397 0.863,-0.247 1.64,0.124c0.423,0.203 -0.206,0.435 0.186,0.75c0.441,0.355 1.124,0.303 1.565,0.658c-0.649,0.87 -2.632,4.47 -4.266,3.636c-1.789,-0.913 0.271,-3.785 0.875,-5.168Zm-103.177,-37.292c0.107,0.213 1.344,2.669 1.344,2.669c-0.734,1.71 -6.749,1.212 -7.342,1.163c2.605,-2.504 2.681,-2.296 5.998,-3.832Zm69.375,85.822c0.551,0.261 0.477,0.226 6.552,3.884c-5.323,2.318 -5.538,0.065 -6.552,-3.884Zm86.034,-51.716c0.689,0.08 3.067,0.354 8.355,2.322c-0.322,0.022 -6.72,1.198 -7.06,0.925c-0.218,-0.175 0.268,-0.406 -1.294,-3.247Zm-195.63,2.469c2.343,0.461 2.36,0.254 4.301,1.728c-2.166,1.849 -2.738,3.764 -4.035,1.289c-0.929,-1.773 -1.249,-1.313 -3.244,-1.577c0.993,-0.48 1.986,-0.959 2.979,-1.439Zm47.338,-38.574c2.143,-0.122 2.029,-0.135 4.283,0.065c-0.194,0.914 -0.388,1.829 -0.582,2.743c-2.881,0.756 -3.11,0.027 -3.7,-2.809Zm117.814,46.222c0.545,1.072 1.09,2.144 1.635,3.216c-5.753,1.567 -5.23,-0.744 -5.117,-1.148c0.087,-0.312 0.349,0.021 3.482,-2.068Zm-257.607,30.422c3.375,-0.182 3.478,-0.475 3.849,0.152c0.844,1.427 0.972,1.203 2.029,2.51l-1.392,0.417c-0.742,-0.327 -0.595,0.705 -1.328,0.382c-0.25,-0.11 -1.181,-0.521 -2.658,-2.14c-0.317,-0.348 -0.182,-0.973 -0.499,-1.321Zm230.554,8.254c3.685,0.735 3.967,1.013 4.557,4.695c-2.372,-1.441 -2.222,-1.489 -4.103,-3.433l-0.454,-1.262Zm-64.853,-106.14c0.519,1.465 4.784,4.162 -1.527,5.734c0.475,-3.012 0.498,-2.929 1.527,-5.734Zm-128.169,89.144c-2.516,1.33 -2.409,1.371 -5.2,2.235c0.728,-2.553 -0.289,-3.908 2.423,-3.827c0.256,0.008 0.204,0.117 2.777,1.592Zm28.821,0.236c2.621,-1.734 2.562,-1.829 2.831,-1.873c1.906,-0.308 1.702,1.336 1.76,1.435c0.17,0.289 0.71,0.219 0.864,0.517c0.223,0.429 -0.068,1.014 0.155,1.443c-0.46,-0.069 -2.665,-0.401 -5.61,-1.521Zm211.936,24.334c3.552,1.27 3.111,2.43 1.192,5.702c-0.922,-2.86 -1.311,-2.712 -1.192,-5.702Zm-191.366,-55.33c2.999,-0.19 2.9,0.157 5.532,1.432c-0.993,0.48 -1.986,0.959 -2.979,1.439c-0.851,-0.957 -1.702,-1.914 -2.553,-2.871Zm71.731,-15.316c1.853,1.836 1.89,1.711 3.087,4.096c-0.673,0.023 -1.246,0.608 -1.918,0.631c-0.46,0.016 -1.812,-1.223 -1.818,-1.615c-0.015,-1.059 0.665,-2.052 0.649,-3.112Zm-38.069,11.865c1.761,0.62 4.703,-0.169 2.584,5.125c-1.489,-2.559 -1.604,-2.387 -2.584,-5.125Zm144.407,30.087c2.432,-1.389 2.556,-2.539 4.169,-1.208c0,0 1.391,2.489 1.512,2.705c-1.894,-0.499 -3.787,-0.998 -5.681,-1.497Zm-218.755,-0.038c-1.393,0.534 -2.785,1.068 -4.178,1.603c0.638,-1.553 0.601,-1.491 1.273,-3.1c1.414,-3.389 2.868,1.424 2.906,1.497Zm152.561,-83.547c0.319,1.95 0.639,3.9 0.958,5.85c-3.268,-1.341 -2.781,-2.717 -2.674,-3.021c0.368,-1.04 1.348,-1.789 1.716,-2.828Zm18.802,41.924c2.818,-1.947 3.787,-2.627 5.298,0.429c-0.844,0.134 -1.687,0.268 -2.531,0.401c-0.922,-0.277 -1.845,-0.554 -2.767,-0.83Zm-98.658,4.496c1.935,0.935 3.016,0.557 2.378,2.538c-0.332,1.031 -1.264,1.799 -1.596,2.829c-0.651,-2.717 -0.553,-2.64 -0.782,-5.367Zm82.625,39.841c2.211,-2.294 2.932,-1.234 4.412,1.557c-1.471,-0.519 -2.941,-1.038 -4.412,-1.557Zm-1.638,-77.651c0.006,2.187 0.033,2.121 -0.213,4.268c-2.437,-1.157 -2.496,-1.061 -2.632,-1.25c-1.238,-1.719 2.529,-2.918 2.845,-3.018Zm-12.782,18.697c0.293,0.675 1.353,0.795 1.647,1.47c0.276,0.635 -2.945,2.605 -3.236,2.783c0.53,-1.418 1.06,-2.835 1.589,-4.253Zm-67.562,8.672c0.313,0.616 1.172,0.831 1.485,1.448c0.94,1.849 -0.286,1.57 -2.121,2.52c0.154,-2.018 0.085,-1.94 0.636,-3.968Z" style="fill:#af8126;fill-opacity:0.96;"/><path d="M1483.999,505.528l0,1.439c-1.428,0.438 -3.667,0.685 -7.834,1.615c-0.784,-0.073 -0.692,0.159 -1.447,0.089c-0.237,-0.022 -0.219,-0.027 -2.955,-0.36c-18.439,2.214 -26.956,7.562 -37.423,11.407c-3.243,-2.058 -3.189,-2.012 -6.973,-2.985c-3.743,-2.388 -3.855,-2.08 -17.667,-7.919c-0.198,-0.084 -0.192,-0.051 -2.596,-0.684c-0.848,-0.447 -1.695,-0.894 -2.543,-1.341c0.546,-0.494 -0.436,-1.712 0.11,-2.206c0.252,-0.228 3.56,-0.754 8.244,-3.092c3.987,-1.99 4.288,-1.226 14.839,-6.77c4.619,-2.427 4.678,-3.954 10.822,-1.836c1.272,0.97 1.203,0.982 2.787,1.414c0.731,0.264 0.507,0.704 8.746,4.223c2.125,0.843 2.036,0.878 4.308,1.452c0.569,0.228 1.137,0.456 1.706,0.684c1.327,0.297 2.655,0.594 3.982,0.891c5.628,2.143 5.877,0.846 11.692,2.418c5.982,1.617 6.228,-0.3 12.202,1.559Zm-47.715,-6.475c0.207,0.202 -0.881,2.476 5.263,2.108c6.499,2.467 9.156,2.971 9.978,3.127c5.194,0.985 -1.312,3.471 -1.606,3.583c-5.795,2.214 -6.024,1.422 -11.556,4.214c-4.96,2.503 -5.071,0.501 -10.059,-1.839c-0.38,-1.593 0.401,-2.374 -5.876,-6.69c12.383,-6.479 12.869,-4.913 13.855,-4.503Zm-13.855,4.503c6.277,4.316 5.496,5.098 5.876,6.69c-4.533,-0.817 -4.241,-1.46 -8.565,-3.009c-2.295,-0.822 -0.835,-2.635 -0.817,-2.644c1.098,-0.528 2.408,-0.509 3.506,-1.038Z" style="fill:#ae8129;fill-opacity:0.92;"/><path d="M80.262,500.372c1.972,-0.065 1.945,0.04 3.859,-0.633c4.722,-2.928 14.442,-6.9 15.73,-7.427c5.012,-2.048 4.849,0.853 6.158,1.101c1.284,0.243 1.72,-0.586 2.447,0.82c0.379,0.732 0.944,-0.069 9.099,4.84c3.686,1.469 3.615,1.396 7.042,3.267c0.182,0.099 0.185,0.05 2.503,0.672c0.104,0.043 -0.074,0.28 4.311,1.483c-0.04,0.44 1.907,2.131 -4.007,4.142c-0.227,0.12 -2.841,1.5 -2.841,1.5c-2.407,1.799 -5.726,1.381 -17.62,7.913c-2.987,1.64 -4.123,2.46 -6.963,0.397c-1.219,-0.643 -1.197,-0.576 -4.08,-1.772c-3.651,-1.626 -3.507,-1.894 -7.428,-2.702c-2.866,-1.422 -2.905,-1.137 -5.945,-2.337c-4.131,-0.838 -13.668,-3.805 -17.125,-2.986c-3.345,0.793 -3.205,-0.317 -4.25,-0.42c-0.507,0.024 -1.014,0.049 -1.521,0.073c-7.056,0.961 -4.716,-2.571 -4.453,-2.905c0.072,-0.092 0.04,-0.054 7.277,-1.521c3.57,-0.724 3.599,0.434 7.16,-0.221c0.197,-0.036 0.072,-0.499 0.268,-0.538c5.323,-1.039 5.486,-0.283 10.377,-2.746Zm30.989,1.41c5.44,3.068 12.224,3.683 6.216,5.487c-9.998,3.001 -12.906,7.929 -18.911,3.947c-2.113,-1.401 -2.32,-0.617 -9.839,-3.438c-1.002,-0.376 -5.658,-0.508 -5.452,-2.105c0.223,-1.736 1.713,0.187 13.782,-5.965c3.898,-1.987 4.345,-2.289 14.206,2.074Z" style="fill:#ae822a;fill-opacity:0.91;"/><path d="M151.957,499.229c0.697,0.247 5.192,-0.158 4.442,7.78c-0.936,9.91 -17.145,3.771 -12.534,-5.39c1.695,-3.368 7.424,-2.491 8.092,-2.389Z" style="fill:#b1852b;fill-opacity:0.97;"/><path d="M1385.363,511.789c-4.856,-1.312 -5.966,-1.156 -6.304,-6.191c-0.307,-4.564 2.869,-5.81 3.383,-6.012c9.983,-3.917 16.284,11.163 2.921,12.203Z" style="fill:#b4862a;fill-opacity:0.98;"/><path d="M962.228,513.832c24.021,-1.208 23.99,-1.137 26.047,-1.493c2.375,-0.411 0.883,2.593 -1.443,3.485c-0.41,0.157 -0.389,0.14 -5.69,1.83c-0.732,-0.441 -1.116,-1.334 -1.848,-1.775c-2.883,-1.737 -3.649,0.06 -4.395,0.516c-0.924,0.564 -0.949,0.166 -2.721,-0.217c-4.583,-0.991 -2.817,3.876 -2.803,4.188c-1.443,0.096 -2.886,0.192 -4.329,0.288c0.37,-1.637 2.188,-2.548 -2.818,-6.823Z" style="fill:#af8027;fill-opacity:0.04;"/><path d="M762.234,499.755c-0.001,-0.436 -0.009,-4.593 0.436,-5.435c0.162,-0.307 0.817,0.094 1.026,-0.183c0.258,-0.342 -0.305,-1.096 0.081,-1.282c1.354,-0.651 1.558,0.681 5.276,0.288c0.377,-0.04 1.159,-0.122 2.717,3.889c1.439,3.704 -3.759,6.602 -4.005,6.8c-3.252,-1.434 -3.096,-1.568 -5.53,-4.077Z" style="fill:#a57922;fill-opacity:0.92;"/><path d="M1045.988,500.049c0.079,0.225 0.988,2.814 0.988,2.814c0.211,0.143 0.233,0.004 3.184,0.05c0.061,2.258 -0.549,2.15 -0.559,4.441c-0.001,0.329 0.62,0.441 0.619,0.77c-5.162,-1.069 -5.069,-1.186 -10.326,-2.072c0.252,-0.343 1.571,-0.81 2.615,-3.562c0.507,-1.338 0.86,-1.393 1.123,-1.732c1.31,-1.694 1.752,-0.527 2.356,-0.709Z" style="fill:#ae8027;fill-opacity:0.09;"/><path d="M751.083,472.415c2.99,12.561 -1.244,12.179 -2.043,11.669c-0.495,-0.316 -0.309,-0.443 -1.9,-7.093c1.036,-1.576 1.262,-1.378 2.043,-3.11c0.741,-1.644 1.682,-1.299 1.9,-1.467Z" style="fill:#966c1c;fill-opacity:0.05;"/><path d="M762.234,499.755c2.435,2.509 2.279,2.643 5.53,4.077c-4.802,0.088 -5.181,0.36 -7.238,4.677c-2.375,-1.918 -2.339,-1.885 -4.209,-4.379c3.581,-1.657 5.533,-3.929 5.916,-4.375Z" style="fill:#a67a22;fill-opacity:0.1;"/><path d="M1422.428,503.556c6.277,4.316 5.496,5.098 5.876,6.69c-4.533,-0.817 -4.241,-1.46 -8.565,-3.009c-2.295,-0.822 -0.835,-2.635 -0.817,-2.644c1.098,-0.528 2.408,-0.509 3.506,-1.038Z" style="fill:#9e7426;fill-opacity:0.05;"/><path d="M724.759,545.463c0.785,0.127 4.224,0.686 9.858,1.304c-0.392,0.223 -0.954,-0.092 -1.346,0.131c-0.616,0.351 -0.944,1.073 -1.512,1.498c-1.218,0.913 -2.593,0.682 -2.822,0.643c-0.468,-0.079 -0.845,-0.669 -1.307,-0.562c-0.638,0.149 -0.909,1.039 -1.538,1.225c-1.772,0.524 -5.796,-2.612 -2.619,-4.528c0.376,-0.227 0.909,0.515 1.285,0.288Z" style="fill:#815e1e;fill-opacity:0.07;"/><path d="M950.822,466.907c-0.476,0.414 -0.333,0.418 -5.529,5.625c-0.294,-1.024 -1.625,-0.653 -1.25,-4.359c0.281,-2.776 1.005,-2.54 3.812,-2.804c2.17,-0.204 2.926,1.517 2.967,1.538Z" style="fill:#84621e;fill-opacity:0.05;"/><path d="M851.001,480.743c-0.279,0.337 0.092,0.962 -0.187,1.299c-0.129,0.156 -1.308,-0.233 -1.405,1.514c-0.135,2.429 0.261,2.34 1.95,4.169c-2.938,0.174 -2.845,0.242 -5.764,0.681c-0.545,-1.072 -1.09,-2.144 -1.635,-3.216c5.438,-3.674 5.291,-3.805 7.041,-4.446Z" style="fill:#725319;fill-opacity:0.09;"/><path d="M705.977,506.106c0.923,0.045 7.184,0.353 11.538,0.547c-2.279,1.627 -2.554,1.284 -3.935,3.652c-0.709,1.215 -4.54,-0.955 -7.603,-4.199Z" style="fill:#7c5b1b;fill-opacity:0.07;"/><path d="M645.325,502.365c0.445,1.008 -0.347,1.362 1.044,2.365c0.959,0.692 0.794,0.729 1.807,1.46l0.258,0.552c-8.137,0.486 -8.084,0.529 -8.788,0.525c-6.504,-0.035 5.122,-4.679 5.68,-4.901Z" style="fill:#a17520;fill-opacity:0.13;"/><path d="M922.418,504.903c2.679,1.345 6.196,2.972 6.738,3.222c-3.792,0.554 -4.166,0.339 -6.13,3.618c-1.343,-0.611 -2.686,-1.221 -4.029,-1.832c1.956,-2.419 1.89,-2.373 3.421,-5.009Z" style="fill:#a07522;fill-opacity:0.09;"/><path d="M890.415,502.383c2.938,1.03 7.766,1.683 6.561,4.013c-0.203,0.391 -7.568,0.349 -8.227,0.345c0.555,-1.453 1.111,-2.905 1.666,-4.358Z" style="fill:#9f731f;fill-opacity:0.09;"/><path d="M996.911,489.688c0.24,0.892 1.497,5.555 0.092,11.545c-3.653,-5.279 -3.556,-6.335 -0.092,-11.545Z" style="fill:#a37725;fill-opacity:0.07;"/><path d="M586.948,479.688c-0.577,3.161 -2.242,4.299 2.223,6.809c-2.754,2.273 -3.027,4.388 -5.601,1.81c-1.048,-1.05 -0.445,-4.248 -0.237,-4.49c0.804,-0.932 1.216,-0.299 2.01,-1.24c0.488,-0.578 -0.306,-0.779 0.198,-1.376l1.406,-1.514Z" style="fill:#a57a25;fill-opacity:0.16;"/><path d="M725.218,463.051c0.145,-0.839 -0.565,-0.942 0.454,-2.634c1.417,-2.353 0.248,-4.085 3.82,-3.996c0.706,0.017 0.363,0.333 0.37,1.636c0.024,4.113 1.777,3.816 2.061,4.172c-1.776,0.214 -1.784,-0.151 -6.706,0.822Z" style="fill:#a77a24;fill-opacity:0.09;"/><path d="M168.978,507.441c1.026,0.127 2.051,0.255 3.077,0.382c7.823,2.017 9.212,0.026 11.367,-0.203c2.949,-0.075 2.863,-0.077 5.791,0.496c-2.333,1.642 -2.285,2.568 -5.662,1.48c-1.183,-0.381 -1.176,-0.215 -10.197,-0.294c-4.166,-0.036 -3.78,-1.495 -4.375,-1.861Z" style="fill:#6b4f19;fill-opacity:0.1;"/><path d="M553.31,470.862c-1.157,6.257 -2.488,5.909 -8.766,7.122c3.623,-4.526 3.788,-4.302 8.766,-7.122Z" style="fill:#997022;fill-opacity:0.09;"/><path d="M1061.515,492.468c1.637,-3.608 2.633,-5.442 5.1,-2.295c1.669,2.13 2.128,1.691 3.416,4.106c-0.715,-0.128 -0.665,-0.127 -8.516,-1.811Z" style="fill:#9b7022;fill-opacity:0.07;"/><path d="M495.766,510.946c-0.111,0.258 -1.384,3.225 -1.384,3.225c-4.443,4.092 -5.494,-0.02 -5.965,-0.337c3.163,-2.791 3.263,-2.88 7.349,-2.888Z" style="fill:#906a22;fill-opacity:0.05;"/><path d="M763.919,535.748l0.758,1.458c0.18,2.352 0.36,4.703 0.54,7.055c-0.78,-0.714 -0.972,-0.442 -1.515,-1.388c-1.12,-1.951 -7.117,-3.505 -2.541,-5.133c1.67,-0.594 1.347,-0.973 2.759,-1.992Z" style="fill:#8e6820;fill-opacity:0.07;"/><path d="M652.609,499.599c-0.223,0.371 0.062,0.918 -0.162,1.29c-0.281,0.467 -0.549,0.113 -4.272,5.3c-1.013,-0.73 -0.847,-0.768 -1.807,-1.46c-1.391,-1.003 -0.599,-1.357 -1.044,-2.365c6.756,-2.711 6.742,-2.458 7.284,-2.766Z" style="fill:#594112;fill-opacity:0.06;"/><path d="M582.519,472.041c5.064,2.61 4.353,4.988 4.429,7.648l-1.406,1.514c-0.551,-1.067 -1.544,-1.865 -2.096,-2.933c-0.328,-0.635 0.522,-1.985 -0.928,-6.229Z" style="fill:#926b20;fill-opacity:0.04;"/><path d="M131.412,504.495c2.508,0.931 2.751,1.186 2.409,3.805c-1.62,1.692 -1.513,1.769 -3.605,2.92c-0.937,-0.861 -1.874,-1.722 -2.811,-2.583c5.914,-2.01 3.966,-3.702 4.007,-4.142Z" style="fill:#9b7328;fill-opacity:0.09;"/><path d="M796.459,524.575c3.531,-1.368 4.353,-3.542 6.128,-0.426c0.187,0.329 0.17,0.757 0.388,1.067c0.775,1.105 0.316,1.181 0.648,2.422c-1.943,-0.571 -3.099,0.159 -7.163,-3.063Z" style="fill:#986e20;fill-opacity:0.06;"/><path d="M760.361,532.467c0.211,-0.43 2.799,-5.697 4.574,-3.856c0.246,0.255 -0.217,7.908 -0.259,8.595l-0.758,-1.458c-0.57,-0.965 -0.567,-0.854 -1.187,-1.903c-1.15,-1.947 -1.755,-1.02 -2.371,-1.378Z" style="fill:#986f21;fill-opacity:0.14;"/><path d="M903.206,434.062c2.52,-1.956 2.553,-2.654 5.603,-1.616c1.493,0.508 1.538,-0.148 3.008,0.349c0.199,0.067 0.105,0.159 1.442,2.188c-5.123,-0.289 -5.03,-0.225 -10.054,-0.921Z" style="fill:#8b661b;fill-opacity:0.11;"/><path d="M524.713,463.596c2.761,-0.381 2.741,-0.415 2.982,-0.411c2.381,0.043 2.219,6.994 -0.276,7.169c-0.489,0.034 -0.885,-0.557 -1.374,-0.523c2.081,-3.017 0.913,-3.306 -1.332,-6.235Z" style="fill:#a77a28;fill-opacity:0.1;"/><path d="M770.246,413.895c-0.492,-0.101 -1.888,-2.297 -6.458,2.543c0.231,-3.288 0.874,-4.254 2.738,-5.727c2.638,-2.085 2.785,-0.102 3.721,3.184Z" style="fill:#9a7120;fill-opacity:0.17;"/><path d="M1186.789,503.08c0.506,-3.589 0.886,-4.73 4.352,-3.519c0.283,0.099 0.881,0.308 1.338,3.505c-2.875,0.156 -2.788,0.158 -5.69,0.015Z" style="fill:#765519;fill-opacity:0.04;"/><path d="M542.751,480.823c1.797,5.645 -0.606,5.244 -2.918,8.656c-0.108,-0.843 -0.215,-1.685 -0.323,-2.528c1.089,-3.425 0.885,-3.49 3.24,-6.128Z" style="fill:#926a1e;fill-opacity:0.08;"/><path d="M399.337,510.15c20.869,0.256 20.883,0.141 24.509,0.948l-4.319,-0.003c-9.356,0.03 -9.255,0.438 -18.584,-0.274l-1.607,-0.671Z" style="fill:#825d18;fill-opacity:0.34;"/><path d="M932.662,460.991c1.24,3.937 1.239,3.91 1.339,4.252c1.164,3.972 -1.054,3.197 -5.019,4.203c1.905,-2.442 3.472,-7.748 3.681,-8.455Z" style="fill:#946c20;fill-opacity:0.15;"/><path d="M739.334,524.615c-2.494,2.218 -2.581,2.022 -5.876,2.82c0.111,-0.361 1.385,-4.512 1.385,-4.512c0.877,-1.178 1.665,-0.387 4.491,1.691Z" style="fill:#936b1f;fill-opacity:0.07;"/><path d="M488.631,502.643l0.788,0.441c0.913,0.804 0.759,0.823 2.016,2.755l-1.462,-0.06c-0.919,0.404 -1.839,0.807 -2.758,1.211l-1.465,1.423c-0.485,-2.312 -0.36,-2.255 -1.402,-4.372c1.428,-0.466 2.855,-0.932 4.283,-1.398Z" style="fill:#a37722;fill-opacity:0.22;"/><path d="M731.419,520.71c-0.871,4.738 -2.782,4.414 -6.814,1.684c3.397,-1.039 3.269,-1.192 6.814,-1.684Z" style="fill:#9c6f21;fill-opacity:0.07;"/><path d="M888.938,480.886c3.255,1.755 3.132,1.798 5.773,4.286c-3.352,0.189 -3.359,0.078 -3.621,0.204c-1.304,0.63 -0.774,1.001 -0.872,1.049c-0.677,0.327 -2.227,-0.725 -2.178,-1.206c0.119,-1.167 1.127,-2.095 1.365,-3.244c0.08,-0.387 -0.547,-0.703 -0.467,-1.089Z" style="fill:#87621d;fill-opacity:0.12;"/><path d="M654.83,524.706c-0.484,5.457 -0.383,5.371 -0.267,10.865c-2.526,-3.653 -1.288,-3.98 -1.996,-8.444c-0.303,-1.91 0.471,-1.584 2.263,-2.421Z" style="fill:#9a7123;fill-opacity:0.14;"/><path d="M657.138,466.474c0.452,1.204 0.904,2.407 1.356,3.611c-2.798,0.755 -2.721,0.688 -5.619,1.171c1.238,-1.975 0.622,-2.175 1.892,-4.2c0.395,-0.63 0.568,-0.672 0.641,-0.69c0.861,-0.211 0.797,0.338 1.73,0.109Z" style="fill:#a47922;fill-opacity:0.06;"/><path d="M707.749,527.184l1.19,5.652c-10.164,-2.083 -1.403,-5.53 -1.19,-5.652Z" style="fill:#ac7e29;fill-opacity:0.05;"/><path d="M875.836,469.493c2.487,-2.959 3.121,-5.782 5.14,-2.447c0.157,0.26 0.44,0.726 0.676,3.737c-1.939,-0.43 -3.877,-0.86 -5.816,-1.29Z" style="fill:#9f7521;fill-opacity:0.04;"/><path d="M400.943,510.821c9.328,0.712 9.228,0.304 18.584,0.274c-0.566,0.062 -0.877,0.852 -1.443,0.915c-0.611,0.067 -13.238,0.08 -14.389,0.082c-2.338,0.002 -2.346,-1.083 -2.751,-1.27Z" style="fill:#604512;fill-opacity:0.15;"/><path d="M822.206,478.258c0.829,0.397 0.863,-0.247 1.64,0.124c0.423,0.203 -0.206,0.435 0.186,0.75c0.441,0.355 1.124,0.303 1.565,0.658c-0.649,0.87 -2.632,4.47 -4.266,3.636c-1.789,-0.913 0.271,-3.785 0.875,-5.168Z" style="fill:#a57821;fill-opacity:0.12;"/><path d="M117.556,499.073c2.192,-0.561 2.23,-1.225 3.811,-0.34c1.464,0.82 1.295,1.176 3.024,1.223c3.149,0.085 2.402,1.372 2.71,3.056c-2.318,-0.622 -2.321,-0.573 -2.503,-0.672c-3.427,-1.871 -3.356,-1.799 -7.042,-3.267Z" style="fill:#977025;fill-opacity:0.11;"/><path d="M719.03,440.966c0.107,0.213 1.344,2.669 1.344,2.669c-0.734,1.71 -6.749,1.212 -7.342,1.163c2.605,-2.504 2.681,-2.296 5.998,-3.832Z" style="fill:#976e21;fill-opacity:0.08;"/><path d="M471.329,498.089c3.537,-0.057 3.629,-0.526 7.306,1.46c-0.702,0.446 -0.79,1.553 -1.492,1.999c-0.232,0.148 -0.843,0.972 -5.814,-3.459Z" style="fill:#a07322;fill-opacity:0.04;"/><path d="M788.405,526.788c0.551,0.261 0.477,0.226 6.552,3.884c-5.323,2.318 -5.538,0.065 -6.552,-3.884Z" style="fill:#a97a24;fill-opacity:0.1;"/><path d="M1363.989,507.592c-0.1,0.111 -1.248,1.383 -1.248,1.383c-0.201,0.29 0.017,0.827 -0.277,1.02c-0.452,0.296 -1.154,-0.084 -1.606,0.212c-0.941,-0.521 -1.882,-1.042 -2.823,-1.563l-5.745,-0.254c0.005,-0.001 2.21,-1.457 11.699,-0.798Z" style="fill:#896520;fill-opacity:0.14;"/><path d="M471.339,492.529c-3.553,1.089 -3.468,1.002 -7.134,1.657c1.093,-4.801 2.92,-4.152 7.134,-1.657Z" style="fill:#90691f;fill-opacity:0.1;"/><path d="M635.556,482.629c-1.525,1.445 -1.495,1.384 -3.117,2.634c-0.884,-2.307 -1.246,-2.156 -1.204,-4.19c0.057,-2.763 2.227,-1.636 2.505,-0.996c0.139,0.319 -0.562,0.696 -0.361,0.98c0.519,0.729 1.658,0.843 2.177,1.572Z" style="fill:#8a661e;fill-opacity:0.05;"/><path d="M874.439,475.072c0.689,0.08 3.067,0.354 8.355,2.322c-0.322,0.022 -6.72,1.198 -7.06,0.925c-0.218,-0.175 0.268,-0.406 -1.294,-3.247Z" style="fill:#9a7021;fill-opacity:0.13;"/><path d="M809.75,473.729c2.633,2.339 2.628,2.361 3.363,5.806c-2.668,-0.934 -3.991,0.194 -4.111,-2.652c-0.022,-0.518 0.438,-0.989 0.388,-1.505c-0.02,-0.204 -0.602,-0.055 -0.558,-0.255c0.186,-0.853 0.719,-0.482 0.918,-1.394Z" style="fill:#a97b22;fill-opacity:0.04;"/><path d="M678.808,477.541c2.343,0.461 2.36,0.254 4.301,1.728c-2.166,1.849 -2.738,3.764 -4.035,1.289c-0.929,-1.773 -1.249,-1.313 -3.244,-1.577c0.993,-0.48 1.986,-0.959 2.979,-1.439Z" style="fill:#7b5a1b;fill-opacity:0.05;"/><path d="M993.438,471.474c2.043,-0.057 1.979,-0.126 4.042,0.213c1.289,2.143 1.105,2.297 -0.018,4.611c-0.336,-0.373 -0.186,-0.368 -4.024,-4.824Z" style="fill:#a77a25;fill-opacity:0.11;"/><path d="M1340.797,503.442c2.331,-0.259 8.635,-2.62 15.825,0.151c-2.481,-0.009 -2.391,0.092 -15.825,-0.151Z" style="fill:#815f1e;fill-opacity:0.23;"/><path d="M726.147,438.968c2.143,-0.122 2.029,-0.135 4.283,0.065c-0.194,0.914 -0.388,1.829 -0.582,2.743c-2.881,0.756 -3.11,0.027 -3.7,-2.809Z" style="fill:#a87a23;fill-opacity:0.06;"/><path d="M966.476,467.319c3.668,-0.036 3.582,-0.147 7.31,0.386c-0.233,0.17 -2.912,2.122 -2.912,2.122c-2.389,0.504 -2.104,-0.515 -4.398,-2.508Z" style="fill:#926c20;fill-opacity:0.12;"/><path d="M818.257,506.785c6.483,-0.657 7.745,-0.162 10.067,-0.135c-0.984,0.458 -0.63,0.826 -1.555,1.257c-0.096,0.045 -0.257,0.12 -1.325,0.083c-3.76,-0.127 -3.907,0.638 -7.187,-1.205Z" style="fill:#8f681d;fill-opacity:0.17;"/><path d="M1071.496,516.756c-0.755,4.086 -2.383,3.887 -5.704,1.43c2.965,-0.992 5.239,-1.356 5.704,-1.43Z" style="fill:#a07222;fill-opacity:0.07;"/><path d="M545.018,519.63c2.243,1.256 2.272,1.053 4.29,2.628c-3.038,1.796 -3.119,2.629 -4.13,1.654c-0.389,-0.375 -0.18,-3.94 -0.16,-4.282Z" style="fill:#89631c;fill-opacity:0.08;"/><path d="M843.96,485.189c0.545,1.072 1.09,2.144 1.635,3.216c-5.753,1.567 -5.23,-0.744 -5.117,-1.148c0.087,-0.312 0.349,0.021 3.482,-2.068Z" style="fill:#9f7421;fill-opacity:0.25;"/><path d="M586.353,515.612c3.375,-0.182 3.478,-0.475 3.849,0.152c0.844,1.427 0.972,1.203 2.029,2.51l-1.392,0.417c-0.742,-0.327 -0.595,0.705 -1.328,0.382c-0.25,-0.11 -1.181,-0.521 -2.658,-2.14c-0.317,-0.348 -0.182,-0.973 -0.499,-1.321Z" style="fill:#a17624;fill-opacity:0.05;"/><path d="M1122.019,510.178l-1.596,0.707c-5.967,0.647 -5.916,0.319 -12.841,0.362l-1.439,-0.024c2.912,-0.441 2.792,-0.798 5.766,-0.873c0.809,-0.02 0.749,-0.013 10.11,-0.171Z" style="fill:#835e1a;fill-opacity:0.34;"/><path d="M615.416,474.992c1.888,0.407 3.775,0.814 5.663,1.221c-2.568,2.115 -2.502,2.191 -2.774,2.285c-2.723,0.94 -1.983,-0.787 -2.889,-3.506Z" style="fill:#926a1f;fill-opacity:0.1;"/><path d="M573.584,467.924c3.026,0.357 2.934,0.394 5.669,1.736c-1.439,0.861 -4.225,4.059 -5.669,-1.736Z" style="fill:#a77b24;fill-opacity:0.05;"/><path d="M1427.366,516.734c3.784,0.973 3.73,0.927 6.973,2.985c-4.813,0.827 -5.213,0.206 -5.449,-0.161c-0.233,-0.361 0.109,-0.942 -0.157,-1.279c-0.425,-0.539 -0.669,0.173 -1.103,-0.319c-0.455,-0.514 0.223,-0.677 -0.263,-1.226Z" style="fill:#936b22;fill-opacity:0.14;"/><path d="M1041.398,511.034c3.639,0.145 3.649,0.164 6.673,2.305c-1.217,0.197 -2.434,0.394 -3.65,0.591c-1.848,-1.582 -1.902,-1.384 -3.023,-2.896Z" style="fill:#a37725;fill-opacity:0.13;"/><path d="M816.907,523.866c3.685,0.735 3.967,1.013 4.557,4.695c-2.372,-1.441 -2.222,-1.489 -4.103,-3.433l-0.454,-1.262Z" style="fill:#a47824;fill-opacity:0.05;"/><path d="M531.982,495.458c0.511,2.223 0.288,2.186 0.764,4.365l-0.95,2.826c-2.024,-3.463 -1.972,-3.823 0.186,-7.191Z" style="fill:#9b7222;fill-opacity:0.08;"/><path d="M752.054,417.726c0.519,1.465 4.784,4.162 -1.527,5.734c0.475,-3.012 0.498,-2.929 1.527,-5.734Z" style="fill:#a37826;fill-opacity:0.07;"/><path d="M623.886,506.869c-2.516,1.33 -2.409,1.371 -5.2,2.235c0.728,-2.553 -0.289,-3.908 2.423,-3.827c0.256,0.008 0.204,0.117 2.777,1.592Z" style="fill:#a97b24;fill-opacity:0.06;"/><path d="M652.707,507.105c2.621,-1.734 2.562,-1.829 2.831,-1.873c1.906,-0.308 1.702,1.336 1.76,1.435c0.17,0.289 0.71,0.219 0.864,0.517c0.223,0.429 -0.068,1.014 0.155,1.443c-0.46,-0.069 -2.665,-0.401 -5.61,-1.521Z" style="fill:#a87a25;fill-opacity:0.07;"/><path d="M386.408,502.583c2.151,-8.094 4.248,-0.384 4.339,-0.049c-2.22,0.204 -2.108,0.206 -4.339,0.049Z" style="fill:#a27724;fill-opacity:0.07;"/><path d="M186.333,502.867c-6.558,0.755 -6.483,0.601 -13.044,0.728c6.017,-2.284 6.171,-0.995 13.044,-0.728Z" style="fill:#815f1f;fill-opacity:0.21;"/><path d="M1011.246,463.914c-1.018,1.6 -1.791,4.281 -1.903,4.669c-0.274,-0.307 -0.89,-0.104 -1.164,-0.411c-3.296,-3.689 2.648,-4.221 3.067,-4.258Z" style="fill:#ad7e29;fill-opacity:0.06;"/><path d="M559.177,468.277c3.531,-0.883 3.463,-0.774 7.148,-0.88c-3.177,2.64 -3.592,2.964 -7.148,0.88Z" style="fill:#936b1f;fill-opacity:0.15;"/><path d="M449.67,513.165c2.248,0.62 2.183,0.416 4.401,1.005c-4.959,2.708 -5.197,1.122 -7.129,-0.172c0.91,-0.277 1.819,-0.555 2.729,-0.832Z" style="fill:#966d21;fill-opacity:0.09;"/><path d="M532.746,499.824c0.83,4.145 1.235,3.996 1.25,4.359c0.099,2.509 -1.122,1.52 -3.632,1.333l1.432,-2.866l0.95,-2.826Z" style="fill:#a17522;fill-opacity:0.17;"/><path d="M864.642,531.439c3.552,1.27 3.111,2.43 1.192,5.702c-0.922,-2.86 -1.311,-2.712 -1.192,-5.702Z" style="fill:#a87c27;fill-opacity:0.05;"/><path d="M963.801,461.389c3.226,-2.509 3.7,-2.413 6.991,-0.157c-0.322,0.04 -2.89,0.478 -6.991,0.157Z" style="fill:#926a20;fill-opacity:0.11;"/><path d="M648.687,444.725c2.762,0.774 2.596,0.987 5.026,2.465c-0.289,0.141 -3.276,1.597 -3.934,0.828c-0.291,-0.34 0.097,-0.954 -0.136,-1.336c-0.291,-0.476 -0.658,0.145 -0.916,-0.384c-0.391,-0.802 0.329,-0.819 -0.039,-1.573Z" style="fill:#a87b25;fill-opacity:0.08;"/><path d="M673.277,476.109c2.999,-0.19 2.9,0.157 5.532,1.432c-0.993,0.48 -1.986,0.959 -2.979,1.439c-0.851,-0.957 -1.702,-1.914 -2.553,-2.871Z" style="fill:#b08027;fill-opacity:0.11;"/><path d="M1130.603,502.471c0.099,-0.334 2.227,-7.509 4.348,0.043c-2.252,0.117 -2.152,0.127 -4.348,-0.043Z" style="fill:#a57824;fill-opacity:0.07;"/><path d="M745.007,460.793c1.853,1.836 1.89,1.711 3.087,4.096c-0.673,0.023 -1.246,0.608 -1.918,0.631c-0.46,0.016 -1.812,-1.223 -1.818,-1.615c-0.015,-1.059 0.665,-2.052 0.649,-3.112Z" style="fill:#af8226;fill-opacity:0.09;"/><path d="M610.009,471.981l2.474,1.717c-2.552,2.207 -2.467,2.445 -2.75,2.378c-2.179,-0.52 -1.317,-2.17 -1.218,-2.358c0.354,-0.677 1.141,-1.059 1.494,-1.736Z" style="fill:#76561a;fill-opacity:0.04;"/><path d="M1107.582,511.246c6.925,-0.043 6.874,0.285 12.841,-0.362c-0.363,0.159 -0.525,1.206 -2.772,1.213c-5.112,0.017 -5.092,0.568 -10.068,-0.851Z" style="fill:#604514;fill-opacity:0.14;"/><path d="M706.938,472.659c1.761,0.62 4.703,-0.169 2.584,5.125c-1.489,-2.559 -1.604,-2.387 -2.584,-5.125Z" style="fill:#a67823;fill-opacity:0.1;"/><path d="M674.386,466.616c0.222,0.172 6.487,5.486 -1.524,3.16c0.275,-0.446 -0.141,-1.12 0.134,-1.566c0.318,-0.517 0.557,0.273 0.911,-0.133c0.534,-0.612 -0.09,-0.809 0.479,-1.461Z" style="fill:#9f741f;fill-opacity:0.11;"/><path d="M95.901,516.674c2.882,1.196 2.86,1.129 4.08,1.772c-3.473,1.913 -4.384,3.229 -4.405,1.53c0,0 0.299,-3.038 0.325,-3.303Z" style="fill:#956f24;fill-opacity:0.05;"/><path d="M851.345,502.745c2.432,-1.389 2.556,-2.539 4.169,-1.208c0,0 1.391,2.489 1.512,2.705c-1.894,-0.499 -3.787,-0.998 -5.681,-1.497Z" style="fill:#9a6f1e;fill-opacity:0.12;"/><path d="M632.59,502.707c-1.393,0.534 -2.785,1.068 -4.178,1.603c0.638,-1.553 0.601,-1.491 1.273,-3.1c1.414,-3.389 2.868,1.424 2.906,1.497Z" style="fill:#a17421;fill-opacity:0.09;"/><path d="M989.955,476.432c1.824,1.82 1.883,1.693 3.118,4.019c-3.051,-0.636 -4.75,0.558 -4.296,-2.462c0.097,-0.644 1.082,-0.914 1.178,-1.558Z" style="fill:#997022;fill-opacity:0.09;"/><path d="M834.095,506.677c3.672,-0.169 3.589,-0.313 7.191,0.257c-3.51,1.899 -3.853,1.907 -7.191,-0.257Z" style="fill:#956d1f;fill-opacity:0.12;"/><path d="M674.208,512.59c-0.515,2.977 -0.581,2.898 -2.202,5.52c-1.727,-3.223 -0.946,-3.695 2.202,-5.52Z" style="fill:#7f5d1b;fill-opacity:0.13;"/><path d="M420.973,501.395c3.409,-2.012 3.707,-2.205 7.188,-0.393c-3.605,0.498 -3.529,0.531 -7.188,0.393Z" style="fill:#997021;fill-opacity:0.16;"/><path d="M785.151,419.16c0.319,1.95 0.639,3.9 0.958,5.85c-3.268,-1.341 -2.781,-2.717 -2.674,-3.021c0.368,-1.04 1.348,-1.789 1.716,-2.828Z" style="fill:#936e23;fill-opacity:0.11;"/><path d="M718.943,506.754c2.371,0.281 4.743,0.563 7.114,0.844c-0.224,0.048 -2.795,0.601 -2.795,0.601c-0.57,0.196 -0.899,0.869 -1.475,1.046c-0.916,0.282 -1.331,-0.081 -1.416,-0.157c-1.075,-0.942 -0.359,-1.399 -1.427,-2.334Z" style="fill:#86621c;fill-opacity:0.22;"/><path d="M402.207,502.32c2.156,-6.642 4.282,-0.46 4.396,-0.127c-1.465,0.042 -2.931,0.085 -4.396,0.127Z" style="fill:#966f22;fill-opacity:0.09;"/><path d="M836.826,455.191c2.677,3.326 2.451,3.914 2.312,4.277c-0.214,0.559 -0.948,0.858 -1.064,1.445c-0.485,2.445 0.519,2.504 -0.576,5.817c0.144,-5.817 -0.038,-5.755 -0.672,-11.539Z" style="fill:#84601c;fill-opacity:0.33;"/><path d="M736.393,475.102c2.614,0.85 2.876,0.776 4.462,4.316c-3.05,-1.261 -3.142,-1.289 -4.462,-4.316Z" style="fill:#9c711e;fill-opacity:0.11;"/><path d="M949.982,480.14c0.039,0.031 4.123,0.557 2.274,3.868c-0.599,1.073 -1.584,1.322 -1.606,1.34c-0.077,-0.413 -0.504,-2.686 -0.669,-5.208Z" style="fill:#aa7d26;fill-opacity:0.11;"/><path d="M705.295,465.579c1.935,0.935 3.016,0.557 2.378,2.538c-0.332,1.031 -1.264,1.799 -1.596,2.829c-0.651,-2.717 -0.553,-2.64 -0.782,-5.367Z" style="fill:#a47825;fill-opacity:0.05;"/><path d="M1014.407,461.588c0.501,-0.45 0.672,0.069 1.205,-0.41c1.611,-1.448 1.108,-1.708 1.255,-1.803c0.683,-0.439 4.013,1.582 4.333,1.776c-3.388,0.492 -3.335,0.736 -6.794,0.436Z" style="fill:#8d6721;fill-opacity:0.21;"/><path d="M1450.108,498.523c0.331,-0.192 2.754,-5.358 4.308,1.452c-2.271,-0.575 -2.183,-0.609 -4.308,-1.452Z" style="fill:#a3792b;fill-opacity:0.06;"/><path d="M787.92,505.42c2.211,-2.294 2.932,-1.234 4.412,1.557c-1.471,-0.519 -2.941,-1.038 -4.412,-1.557Z" style="fill:#b38326;fill-opacity:0.08;"/><path d="M786.282,427.77c0.006,2.187 0.033,2.121 -0.213,4.268c-2.437,-1.157 -2.496,-1.061 -2.632,-1.25c-1.238,-1.719 2.529,-2.918 2.845,-3.018Z" style="fill:#a57a24;fill-opacity:0.07;"/><path d="M183.422,507.621c-2.154,0.229 -3.543,2.22 -11.367,0.203c5.703,-0.43 5.632,-0.206 11.367,-0.203Z" style="fill:#6f5017;fill-opacity:0.26;"/><path d="M812.516,528.387c3.873,0.164 3.837,0.125 4.168,0.162c-0.814,1.059 -1.628,2.118 -2.442,3.177c-1.525,-3.004 -1.495,-2.988 -1.727,-3.339Z" style="fill:#a07420;fill-opacity:0.18;"/><path d="M615.364,497.17c-1.675,2.077 -1.938,1.67 -4.325,2.738c1.261,-4.944 2.981,-2.882 4.325,-2.738Z" style="fill:#9f7421;fill-opacity:0.09;"/><path d="M936.753,523.616c2.73,-0.039 2.674,0.01 5.276,0.743c-4.805,2.461 -4.768,0.395 -5.276,-0.743Z" style="fill:#9b7121;fill-opacity:0.12;"/><path d="M812.56,507.293c-1.199,2.356 -0.852,4.192 -2.986,2.695c-0.667,-0.468 -0.749,-1.525 -1.416,-1.993c2.219,-0.512 2.139,-0.554 4.403,-0.702Z" style="fill:#9c721e;fill-opacity:0.11;"/><path d="M1034.171,505.786c0.317,-0.197 3.621,-2.254 4.331,-1.748c0.665,0.474 0.728,1.54 1.393,2.014c-1.908,-0.089 -3.816,-0.177 -5.724,-0.266Z" style="fill:#8b631a;fill-opacity:0.12;"/><path d="M984.29,471.805c2.321,1.258 2.206,1.312 4.096,3.147c-6.713,0.019 -4.098,-3.053 -4.096,-3.147Z" style="fill:#9f7322;fill-opacity:0.15;"/><path d="M904.558,502.787c6.31,-0.642 5.663,2.992 5.671,3.009c-2.785,-1.665 -2.915,-1.284 -5.671,-3.009Z" style="fill:#9b6f1f;fill-opacity:0.16;"/><path d="M897.516,441.058c-1.181,2.193 -0.776,3.882 -2.988,2.646c-0.613,-0.343 -0.816,-1.206 -1.429,-1.549c1.473,-0.365 2.945,-0.731 4.418,-1.096Z" style="fill:#a87b25;fill-opacity:0.11;"/><path d="M634.008,434.033c0.436,-0.207 1.013,0.218 1.449,0.011c0.95,-0.45 1.88,-3.542 3.982,0.132c0.142,0.248 0.187,0.543 0.329,0.791c-2.953,-0.412 -2.86,-0.374 -5.76,-0.933Z" style="fill:#90691e;fill-opacity:0.19;"/><path d="M82.528,511.635c3.041,1.2 3.079,0.915 5.945,2.337c-2.227,-0.171 -2.154,-0.094 -4.35,0.209c-0.532,-0.848 -1.064,-1.697 -1.595,-2.545Z" style="fill:#a67d2e;fill-opacity:0.15;"/><path d="M764.937,512.802c2.325,-0.324 2.265,-0.275 4.54,0.151c-2.049,1.995 -2.681,2.033 -4.54,-0.151Z" style="fill:#a67922;fill-opacity:0.09;"/><path d="M741.94,544.306c1.391,0.061 2.783,0.122 4.174,0.183c0.168,0.868 0.336,1.737 0.504,2.605c-1.882,-1.152 -4.302,-2.569 -4.678,-2.789Z" style="fill:#8e691e;fill-opacity:0.09;"/><path d="M80.262,500.372c0.847,-1.857 0.61,-3.008 2.431,-2.09c0.607,0.306 0.821,1.151 1.428,1.457c-1.914,0.673 -1.887,0.568 -3.859,0.633Z" style="fill:#a17828;fill-opacity:0.08;"/><path d="M672.649,518.608c4.09,0.847 2.64,2.339 1.885,4.101c-0.628,-1.367 -1.257,-2.734 -1.885,-4.101Z" style="fill:#936a1e;fill-opacity:0.13;"/><path d="M773.5,446.467c0.293,0.675 1.353,0.795 1.647,1.47c0.276,0.635 -2.945,2.605 -3.236,2.783c0.53,-1.418 1.06,-2.835 1.589,-4.253Z" style="fill:#a17522;fill-opacity:0.13;"/><path d="M752.725,517.374c0.115,0.296 1.363,3.492 0.671,3.911c-0,0 -2.484,0.159 -2.7,0.173c1.067,-2.049 0.946,-2.032 2.029,-4.085Z" style="fill:#ab7d24;fill-opacity:0.17;"/><path d="M723.281,515.999c-2.729,1.123 -2.654,1.165 -5.594,1.433c0.261,-0.35 -0.031,-0.94 0.23,-1.29c0.256,-0.344 0.539,-0.723 5.364,-0.143Z" style="fill:#9c7120;fill-opacity:0.18;"/><path d="M514.509,459.585l1.423,1.759c-2.113,0.149 -2.045,0.097 -4.119,-0.078c0.248,-0.379 -0.06,-0.968 0.189,-1.347c0.111,-0.169 0.181,-0.024 2.507,-0.334Z" style="fill:#a47a29;fill-opacity:0.11;"/><path d="M705.939,455.139c0.313,0.616 1.172,0.831 1.485,1.448c0.94,1.849 -0.286,1.57 -2.121,2.52c0.154,-2.018 0.085,-1.94 0.636,-3.968Z" style="fill:#ae7f27;fill-opacity:0.06;"/><path d="M1014.463,501.753c0.24,-0.644 -0.706,-1.364 -0.466,-2.008c0.315,-0.846 3.766,0.701 4.069,0.837c-1.201,0.39 -2.402,0.781 -3.603,1.171Z" style="fill:#af7f27;fill-opacity:0.11;"/><path d="M730.653,513.202c-1.935,1.727 -2.199,1.171 -4.527,2.398c0.12,-0.224 1.502,-2.804 1.502,-2.804c0.184,-0.16 0.218,0.029 3.025,0.406Z" style="fill:#966c1f;fill-opacity:0.15;"/><path d="M1436.283,499.054c2.761,0.787 2.752,0.622 5.263,2.108c-6.145,0.368 -5.057,-1.907 -5.263,-2.108Z" style="fill:#a37726;fill-opacity:0.17;"/><path d="M751.172,542.782c3.187,0.304 2.592,1.525 1.86,4.599c-1.098,-2.253 -1.135,-2.159 -1.86,-4.599Z" style="fill:#99701f;fill-opacity:0.18;"/><path d="M803.876,447.154c0.448,-0.027 5.598,-0.333 5.598,-0.333c1.591,0.259 1.262,1.33 1.388,1.464c-3.582,-0.433 -3.513,-0.444 -6.987,-1.131Z" style="fill:#92691e;fill-opacity:0.29;"/><path d="M946.696,484.999c0.602,0.194 0.45,0.276 1.074,0.477c1.785,0.573 1.746,-0.078 2.88,-0.128c-0.107,0.128 -1.332,1.598 -1.332,1.598c-2.317,3.112 -2.23,-0.94 -2.622,-1.946Z" style="fill:#956e21;fill-opacity:0.2;"/><path d="M636.518,461.181c0.291,0.287 0.93,-0.394 1.221,-0.107c0.087,0.086 0.106,1.303 0.108,1.416c0.051,3.352 -1.177,2.903 -1.775,4.377c0.135,-0.954 0.349,-0.795 0.477,-1.7c0.031,-0.22 0.014,-0.205 0.193,-2.77l-0.224,-1.216Z" style="fill:#745318;fill-opacity:0.21;"/><path d="M910.855,513.497c1.978,0.149 1.9,0.027 3.827,0.734c-2.579,1.208 -2.992,2.199 -3.642,0.848c-0.23,-0.478 0.046,-1.103 -0.184,-1.582Z" style="fill:#94671c;fill-opacity:0.13;"/><path d="M868.696,521.429c2.114,-2.533 2.767,-1.7 4.297,-0.106c-3.972,-0.04 -3.954,0.138 -4.297,0.106Z" style="fill:#9e7120;fill-opacity:0.11;"/><path d="M857.092,494.196c2.389,0.144 4.778,0.287 7.168,0.431c-3.617,0.971 -3.644,0.942 -7.168,-0.431Z" style="fill:#91681d;fill-opacity:0.29;"/><path d="M779.471,502.749c-1.738,1.637 -3.946,3.974 -4.28,4.328c0.006,-0.04 -0.39,-3.49 4.28,-4.328Z" style="fill:#916a1c;fill-opacity:0.29;"/><path d="M786.662,507.022c1.147,2.796 0.867,2.795 1.135,5.744c-1.382,-2.723 -1.453,-2.712 -1.135,-5.744Z" style="fill:#996e1f;fill-opacity:0.16;"/><path d="M573.541,462.368c0.601,-0.284 0.845,-1.089 1.446,-1.372c0.802,-0.378 1.266,-0.015 1.351,0.052c0.928,0.727 0.233,1.189 1.157,1.914c-2.055,-0.15 -1.964,-0.084 -3.954,-0.593Z" style="fill:#a57a25;fill-opacity:0.13;"/><path d="M1023.975,467.091l1.616,0.718c-0.599,0.286 -0.89,1.035 -1.488,1.321c-0.62,0.296 -1.207,0.053 -1.303,0.013c-0.907,-0.376 -0.544,-0.779 -1.524,-1.185c0.9,-0.289 1.8,-0.578 2.7,-0.868Z" style="fill:#9e7325;fill-opacity:0.07;"/><path d="M811.034,515.864c3.762,0.085 3.746,-0.118 7.16,1.441c-3.647,-0.523 -3.616,-0.302 -7.16,-1.441Z" style="fill:#88631b;fill-opacity:0.3;"/><path d="M512.226,503.83c4.775,1.163 0.973,2.606 0.76,2.664c-0.345,0.094 -0.667,-0.453 -1.012,-0.358l0.253,-2.306Z" style="fill:#ab7d27;fill-opacity:0.27;"/><path d="M721.753,456.52c-1.274,2.448 -1.361,2.826 -4.085,2.59c0.529,-0.244 0.734,-0.963 1.263,-1.207c0.691,-0.319 0.692,0.318 1.349,0.002c0.146,-0.07 0.109,-0.103 1.473,-1.385Z" style="fill:#8c661f;fill-opacity:0.18;"/><path d="M769.419,480.959c0.208,0.25 1.303,1.565 2.701,3.048l0.308,1.127c-0.288,-0.277 -0.881,0.01 -1.168,-0.267c-0.283,-0.273 -0.011,-0.869 -0.294,-1.142c-0.482,-0.466 -0.661,0.204 -1.178,-0.281c-0.147,-0.138 -0.027,-0.181 -0.37,-2.485Z" style="fill:#8d661c;fill-opacity:0.24;"/><path d="M1021.395,498.646c-1.416,0.907 -1.345,0.842 -2.919,1.446c0.713,-1.162 -0.179,-1.382 0.532,-2.541c0.851,-1.387 0.852,0.391 2.386,1.094Z" style="fill:#976e20;fill-opacity:0.13;"/><path d="M638.223,488.174c-0.31,2.334 -0.187,2.377 -0.334,2.517c-0,0 -2.405,0.197 -2.614,0.214c1.394,-1.54 1.315,-1.463 2.948,-2.732Z" style="fill:#a57821;fill-opacity:0.15;"/><path d="M798.052,546.029c4.389,0.361 4.292,0.254 8.719,0.336c-4.387,0.659 -4.383,0.645 -8.719,-0.336Z" style="fill:#825e1b;fill-opacity:0.4;"/><path d="M1350.85,508.34l1.44,0.049l5.745,0.254l-1.415,0.627c-1.923,-0.31 -3.846,-0.621 -5.769,-0.931Z" style="fill:#5e4515;fill-opacity:0.1;"/><path d="M444.019,512.571c1.884,0.198 3.767,0.396 5.651,0.594c-0.91,0.277 -1.819,0.555 -2.729,0.832c-0.974,-0.475 -1.948,-0.951 -2.922,-1.426Z" style="fill:#8d661e;fill-opacity:0.26;"/><path d="M904.658,460.77c-1.442,0.903 -1.525,0.641 -2.912,1.576c0.028,-0.196 0.348,-2.451 0.348,-2.451c0.174,-0.13 0.184,0.063 2.564,0.875Z" style="fill:#976e1e;fill-opacity:0.16;"/><path d="M852.769,487.659c3.642,-0.887 3.638,-0.869 7.293,0.258c-2.431,-0.086 -4.862,-0.172 -7.293,-0.258Z" style="fill:#815d19;fill-opacity:0.4;"/><path d="M737.684,538.817c-2.825,1.108 -2.792,1.003 -5.796,1.3c2.88,-1.154 2.824,-0.984 5.796,-1.3Z" style="fill:#86611b;fill-opacity:0.27;"/><path d="M535.03,512.153c2.146,0.74 2.359,0.314 3.916,2.075c-0.213,-0.023 -2.659,-0.286 -2.659,-0.286c-0.623,-0.379 -0.635,-1.41 -1.258,-1.789Z" style="fill:#a47723;fill-opacity:0.19;"/><path d="M720.449,531.405c4.721,0.495 4.19,1.547 4.226,1.575c-0.94,-0.052 -1.879,-0.103 -2.819,-0.155c-0.469,-0.473 -0.938,-0.947 -1.407,-1.42Z" style="fill:#a27826;fill-opacity:0.2;"/><path d="M1048.071,513.339l0.559,0.73c-0.238,0.079 -2.976,0.986 -2.976,0.986c-0.525,-0.185 -0.709,-0.939 -1.233,-1.125c1.217,-0.197 2.434,-0.394 3.65,-0.591Z" style="fill:#7a591b;fill-opacity:0.08;"/><path d="M847.068,494.209c-2.869,0.987 -2.798,1.011 -5.785,0.915c2.842,-0.832 2.799,-0.771 5.785,-0.915Z" style="fill:#936a1d;fill-opacity:0.3;"/><path d="M670.06,494.58c1.905,-0.122 3.811,-0.244 5.716,-0.366c-2.839,0.948 -2.842,0.997 -5.716,0.366Z" style="fill:#8d651b;fill-opacity:0.33;"/><path d="M944.902,505.932c3.013,0.035 2.951,0.014 5.795,0.949c-2.979,-0.198 -2.899,-0.077 -5.795,-0.949Z" style="fill:#946c1e;fill-opacity:0.31;"/><path d="M748.081,506.821c1.41,1.922 1.108,2.029 0.895,4.417c-0.722,-2.178 -0.643,-2.119 -0.895,-4.417Z" style="fill:#92691b;fill-opacity:0.19;"/><path d="M761.054,568.526c1.618,1.279 1.544,1.232 2.972,2.679c-0.447,-0.219 -1.037,0.069 -1.484,-0.149c-0.908,-0.444 -1.309,-1.126 -1.385,-1.255c-0.37,-0.629 0.245,-0.683 -0.104,-1.275Z" style="fill:#805b1c;fill-opacity:0.24;"/><path d="M803.953,461.084c0.922,0.277 1.845,0.554 2.767,0.83c-1.395,0.205 -2.791,0.41 -4.186,0.615c0.473,-0.482 0.946,-0.964 1.419,-1.446Z" style="fill:#91681c;fill-opacity:0.31;"/><path d="M905.961,461.062c0.268,0.261 0.81,0.051 1.078,0.312c0.997,0.973 0.296,1.116 -0.298,3.498c-0.529,-1.976 -0.497,-1.87 -0.78,-3.81Z" style="fill:#9a7121;fill-opacity:0.2;"/><path d="M1019.773,466.71c2.178,0.041 2.067,0.035 4.202,0.38c-0.9,0.289 -1.8,0.578 -2.7,0.868l-1.502,-1.248Z" style="fill:#a17523;fill-opacity:0.21;"/><path d="M775.311,534.097c1.157,1.16 1.394,0.717 2.547,1.767c0.244,0.222 0.044,0.725 0.288,0.947c-0.657,-0.365 -0.702,0.44 -1.368,0.07c-0,-0 -1.35,-2.561 -1.467,-2.784Z" style="fill:#8c661e;fill-opacity:0.21;"/><path d="M504.429,472.409c-0.403,3.008 -0.451,2.953 -1.557,5.755c0.307,-3.04 0.356,-2.989 1.557,-5.755Z" style="fill:#7c5a18;fill-opacity:0.3;"/><path d="M541.807,505.64c3.065,0.239 3.144,-0.222 5.865,1.109c-1.955,-0.37 -3.91,-0.739 -5.865,-1.109Z" style="fill:#8f681c;fill-opacity:0.3;"/><path d="M897.682,488.009c0.224,0.225 1.396,1.402 2.868,2.738c-0.668,-0.318 -0.724,0.06 -1.341,-0.233c-2.018,-0.961 -1.386,-2.273 -1.527,-2.505Z" style="fill:#835f1a;fill-opacity:0.25;"/><path d="M772.12,484.006c1.496,1.428 1.442,1.375 2.909,2.849c-0.187,-0.044 -2.337,-0.548 -2.337,-0.548c-0.293,-0.274 0.029,-0.9 -0.264,-1.174l-0.308,-1.127Z" style="fill:#8d661b;fill-opacity:0.26;"/><path d="M798.378,448.35c0.318,-0.335 -0.124,-1.038 0.195,-1.373c0.41,-0.431 1.072,-0.089 1.154,-0.046c0.922,0.477 0.469,0.885 1.321,1.326c-0.89,0.031 -1.78,0.062 -2.67,0.093Z" style="fill:#9d7120;fill-opacity:0.15;"/><path d="M773.783,520.027c0.136,0.511 0.777,0.785 0.914,1.296c0,0 0.444,2.591 0.483,2.817c-1.667,-1.6 -1.447,-1.72 -1.397,-4.112Z" style="fill:#7c5b1a;fill-opacity:0.2;"/><path d="M690.129,494.137c1.929,0.307 3.858,0.614 5.786,0.921c-2.961,-0.124 -2.89,0.015 -5.786,-0.921Z" style="fill:#936a1c;fill-opacity:0.33;"/><path d="M616.485,516.693c-0.368,0.34 0.331,1.226 -1.415,1.306c-1.431,0.065 -1.355,0.098 -2.732,0.198c2.064,-0.881 1.97,-0.929 4.147,-1.504Z" style="fill:#946b1e;fill-opacity:0.27;"/><path d="M721.856,532.825c0.94,0.052 1.879,0.103 2.819,0.155l1.43,0.158c-0.229,0.059 -2.86,0.731 -2.86,0.731c-0.548,-0.189 -0.841,-0.856 -1.389,-1.045Z" style="fill:#966e23;fill-opacity:0.12;"/><path d="M740.513,456.597c1.591,1.282 1.531,1.227 3.064,2.66c-2.329,-0.327 -2.545,-0.437 -3.064,-2.66Z" style="fill:#90681c;fill-opacity:0.33;"/><path d="M590.84,505.874c-2.88,0.823 -2.794,0.726 -5.789,1.026c2.872,-0.671 2.796,-0.799 5.789,-1.026Z" style="fill:#92691c;fill-opacity:0.33;"/><path d="M785.581,433.694c-0.513,1.408 -1.026,2.816 -1.538,4.225c0.024,-0.757 0.149,-0.681 0.172,-1.396c0.066,-2.095 0.836,-1.731 1.367,-2.828Z" style="fill:#9a701f;fill-opacity:0.31;"/><path d="M634.008,460.956c0.837,0.075 1.673,0.15 2.51,0.225l0.224,1.216c-0.267,-0.241 -0.771,-0.051 -1.038,-0.292c-0.467,-0.422 0.117,-0.642 -0.338,-0.951c-0.61,-0.413 -0.709,0.241 -1.357,-0.198Z" style="fill:#9e7322;fill-opacity:0.3;"/><path d="M741.94,544.306c2.196,-0.756 2.391,-1.335 4.174,0.183c-1.391,-0.061 -2.783,-0.122 -4.174,-0.183Z" style="fill:#9e7421;fill-opacity:0.21;"/><path d="M1438.575,492.886c0.667,0.068 0.614,-0.003 1.339,0.07c1.687,0.172 1.032,0.957 1.448,1.343c-1.584,-0.432 -1.515,-0.444 -2.787,-1.414Z" style="fill:#926b23;fill-opacity:0.26;"/><path d="M1471.763,508.312c2.736,0.333 2.718,0.338 2.955,0.36c0.755,0.07 0.663,-0.162 1.447,-0.089c-2.256,0.536 -2.236,0.585 -4.402,-0.271Z" style="fill:#826225;fill-opacity:0.12;"/><path d="M661.047,527.101c-0.058,1.451 -0.116,2.902 -0.173,4.353c-0.457,-2.173 -0.492,-2.125 0.173,-4.353Z" style="fill:#996f21;fill-opacity:0.25;"/><path d="M1356.622,503.593c2.221,-0.623 2.181,-0.592 4.408,0.009l-4.408,-0.009Z" style="fill:#906c23;fill-opacity:0.2;"/><path d="M1456.121,500.66c2.111,-0.27 2.044,-0.049 3.982,0.891c-1.327,-0.297 -2.655,-0.594 -3.982,-0.891Z" style="fill:#816021;fill-opacity:0.26;"/><path d="M802.223,473.557c-0.932,0.527 -1.863,1.054 -2.795,1.581c1.29,-1.046 1.213,-1.014 2.795,-1.581Z" style="fill:#8b6419;fill-opacity:0.27;"/><path d="M859.929,468.062c0.304,0.51 -0.85,1.185 -0.546,1.695c0,0 1.849,0.783 2.01,0.851c-0.733,-0.289 -0.64,0.599 -1.384,0.306c-0.135,-0.053 -1.208,-0.476 -1.232,-1.337c-0.018,-0.634 1.17,-0.88 1.153,-1.514Z" style="fill:#ac7c25;fill-opacity:0.36;"/><path d="M751.808,437.994c0.389,0.496 0.633,-0.07 0.998,0.395c0.123,0.157 0.024,0.183 0.329,2.467c-0.443,-0.954 -0.885,-1.908 -1.328,-2.862Z" style="fill:#926b1b;fill-opacity:0.29;"/><path d="M474.21,512.891c1.454,0.006 2.907,0.011 4.361,0.017c-2.165,0.459 -2.127,0.484 -4.361,-0.017Z" style="fill:#8f681e;fill-opacity:0.23;"/><path d="M775.029,486.855c1.118,1.155 1.088,1.078 1.739,2.586c-0.545,-0.578 -1.148,-0.174 -1.739,-2.586Z" style="fill:#8d651c;fill-opacity:0.24;"/><path d="M636.999,500.16c-0.911,0.5 -1.821,1.001 -2.732,1.501c0.911,-0.5 1.821,-1.001 2.732,-1.501Z" style="fill:#a17620;fill-opacity:0.31;"/><path d="M740.855,479.418c0.451,0.981 0.901,1.963 1.352,2.944c-0.451,-0.981 -0.901,-1.963 -1.352,-2.944Z" style="fill:#8c641a;fill-opacity:0.31;"/><path d="M1099.001,500.492c2.168,-0.342 2.093,-0.326 4.322,0.269l-4.322,-0.269Z" style="fill:#815d18;fill-opacity:0.39;"/><path d="M539.511,486.951c0.108,0.843 0.215,1.685 0.323,2.528l-0.827,1.655c0.168,-1.394 0.336,-2.789 0.504,-4.183Z" style="fill:#926a1d;fill-opacity:0.36;"/><path d="M895.947,478.233c2.21,0.511 2.24,0.422 2.387,0.552c0.295,0.261 -0.072,0.899 0.223,1.16c-1.457,-0.712 -1.393,-0.65 -2.609,-1.712Z" style="fill:#8e661c;fill-opacity:0.31;"/><path d="M684.053,468.401c0.273,0.305 0.928,-0.048 1.201,0.258c0,0 0.519,2.141 0.565,2.327c-1.059,-1.195 -1.03,-1.114 -1.766,-2.584Z" style="fill:#88621b;fill-opacity:0.28;"/><path d="M789.301,463.683c-0.511,0.931 -1.022,1.862 -1.533,2.793c0.511,-0.931 1.022,-1.862 1.533,-2.793Z" style="fill:#8d651c;fill-opacity:0.31;"/><path d="M754.909,515.579c-0.548,0.452 -1.097,0.904 -1.645,1.356c0.25,-0.636 0.151,-0.614 0.381,-1.199c0.608,-1.545 1.163,-0.144 1.264,-0.157Z" style="fill:#8c651c;fill-opacity:0.26;"/><path d="M794.97,457.727c-0.832,0.621 -1.663,1.243 -2.495,1.864c0.832,-0.621 1.663,-1.243 2.495,-1.864Z" style="fill:#825e1a;fill-opacity:0.29;"/><path d="M842.701,507.087l4.245,0.576c-2.196,0.181 -2.106,0.08 -4.245,-0.576Z" style="fill:#8f661c;fill-opacity:0.36;"/><path d="M781.047,513.887c0.741,1.647 0.864,1.537 1.197,3.168c-0.905,-1.488 -0.874,-1.418 -1.197,-3.168Z" style="fill:#825d18;fill-opacity:0.4;"/><path d="M794.091,468.402c-0.715,1.425 -0.711,1.349 -1.773,2.564c0.929,-3.058 1.632,-2.411 1.773,-2.564Z" style="fill:#8b651b;fill-opacity:0.33;"/><path d="M1404.56,506.79c0.848,0.447 1.695,0.894 2.543,1.341c-0.848,-0.447 -1.695,-0.894 -2.543,-1.341Z" style="fill:#966e24;fill-opacity:0.24;"/><path d="M631.325,462.512c-0.643,1.589 -0.619,1.482 -1.542,2.789c0.556,-2.231 0.489,-2.244 0.601,-2.409c0.319,-0.473 0.596,0.132 0.942,-0.38Z" style="fill:#825e1a;fill-opacity:0.35;"/><path d="M803.691,512.929c0.978,0.47 1.956,0.941 2.934,1.411c-0.978,-0.47 -1.956,-0.941 -2.934,-1.411Z" style="fill:#85601a;fill-opacity:0.36;"/></g></svg>