<svg xmlns="http://www.w3.org/2000/svg" viewBox="0 0 4779 1975" role="img" aria-label="xrune — The Grimoire">
  <g fill="#c5a253"><g transform="translate(120 1232) scale(1 -1)">
    <path transform="translate(0 0)" d="M743 10H757V0H416V10H429Q450 10 463 30Q469 41 469.0 51.0Q469 61 463 71L324 288L130 12Q12 -154 -129 -154Q-150 -154 -172 -150V-140Q-84 -132 -21 -65Q9 -33 51 24L285 348L102 631Q79 666 41 682Q21 690 1 690H-13V700H327V690H314Q293 690 280 670Q274 659 274.0 648.5Q274 638 279 629L402 440L576 696Q690 863 832 863Q844 863 857 862V852Q775 850 693 739Q681 724 669.5 707.0Q658 690 655 687L442 378L642 68Q659 43 686.5 26.5Q714 10 743 10Z"/>
    <path transform="translate(909 0)" d="M1085 -170Q1007 -209 919 -209Q841 -209 777 -185Q639 -134 542 14Q517 50 449.0 152.0Q381 254 361 282Q326 337 305 342V352Q306 352 307.5 352.0Q309 352 311.0 352.0Q313 352 315.0 352.0Q317 352 320.0 352.0Q323 352 325 352Q376 352 419 375Q484 411 484 508Q484 579 444.0 617.5Q404 656 348 656H272V73Q272 47 291.0 28.5Q310 10 336 10H349V0H45V10H58Q83 10 102.0 28.0Q121 46 122 72V627Q121 653 102.5 671.5Q84 690 58 690H45V700H388Q517 700 588 641Q644 595 644.0 511.0Q644 427 589.5 374.5Q535 322 465 322Q459 322 452 323Q493 301 520.5 274.0Q548 247 568.5 223.0Q589 199 603.5 180.5Q618 162 642.0 131.5Q666 101 692.0 68.0Q718 35 749.5 0.5Q781 -34 819.5 -65.0Q858 -96 898 -116Q983 -159 1085 -160Z"/>
    <path transform="translate(1820 0)" d="M910 903Q923 903 937 902V892Q819 883 767 780Q733 713 733 610V253Q731 127 652.0 56.5Q573 -14 426.5 -14.0Q280 -14 193.0 58.5Q106 131 107 252V641Q107 662 91.5 676.0Q76 690 54 690H38V700H326V690H310Q279 690 264 666Q257 655 257 642V260Q257 154 312.0 92.0Q367 30 457 30Q458 30 458.0 30.0Q458 30 459 30Q548 30 605.0 88.0Q662 146 662 247V610Q662 745 733.5 824.0Q805 903 910 903Z"/>
    <path transform="translate(2824 0)" d="M1104 -132 1108 -142Q1052 -169 995 -169Q864 -169 728 -24L254 479V70Q254 45 272.0 27.5Q290 10 315 10H334V0H31V10H49Q75 10 93.0 27.5Q111 45 111 71V632Q62 688 37.0 710.5Q12 733 -7.5 748.0Q-27 763 -45 773Q-87 797 -112.5 801.0Q-138 805 -160.5 805.0Q-183 805 -209 796L-213 806Q-158 838 -100 838Q26 838 167 688L614 213V629Q613 655 595.0 672.5Q577 690 552 690H534V700H837V690H818Q793 690 775.0 672.5Q757 655 756 630V61L772 45Q778 39 790.5 24.5Q803 10 813.0 -0.5Q823 -11 838.5 -27.0Q854 -43 867.5 -55.0Q881 -67 899.5 -81.0Q918 -95 934.5 -104.5Q951 -114 972.0 -122.5Q993 -131 1012.5 -134.5Q1032 -138 1055.5 -138.0Q1079 -138 1104 -132Z"/>
    <path transform="translate(3869 0)" d="M55 10Q81 10 99.5 28.5Q118 47 119 73V630Q116 665 86 682Q71 690 55 690H42V700H323Q367 700 400.0 707.0Q433 714 443 718V543H432V555Q433 600 406.5 627.5Q380 655 335 657H269V366H428Q465 367 489.0 391.5Q513 416 513 452V461H522V230H513V238Q513 275 489.0 299.0Q465 323 429 324H269V43H464Q537 43 586.5 85.0Q636 127 660 204H670L623 0H42V10Z"/>
  </g></g>
  <rect x="751" y="1382" width="3277" height="14" fill="#c5a253" opacity="0.55"/>
  <g fill="#e0bf6d"><g transform="translate(751 1855) scale(0.3 -0.3)">
    <path transform="translate(0 0)" d="M-25 467Q-74 514 -74 568Q-74 610 -47 641Q4 701 96 701H567Q611 702 644.0 708.5Q677 715 686 719V545H676V557Q676 602 649.0 630.0Q622 658 576 659H441V72Q443 36 474 18Q488 10 505 10H518V0H214V10H227Q253 10 271.5 28.0Q290 46 291 71V659H96Q55 659 24 644Q-39 614 -39 550Q-39 512 -15 472Z"/>
    <path transform="translate(938 0)" d="M523 10Q549 10 568.0 28.0Q587 46 588 72V327H273V70Q273 -50 212 -121Q164 -177 74 -177Q45 -177 11 -170L9 -160Q83 -129 104 -68Q123 -16 123 70V628Q122 654 103.5 672.0Q85 690 59 690H46V700H350V690H337Q301 690 283 660Q274 646 273 628V370H588V610Q588 727 661 796Q719 853 807 853Q827 853 849 850L851 840Q778 814 756 748Q738 694 737 610V73Q738 37 769 19Q784 10 802 10H814V0H511V10Z"/>
    <path transform="translate(2039 0)" d="M55 10Q81 10 99.5 28.5Q118 47 119 73V630Q116 665 86 682Q71 690 55 690H42V700H323Q367 700 400.0 707.0Q433 714 443 718V543H432V555Q433 600 406.5 627.5Q380 655 335 657H269V366H428Q465 367 489.0 391.5Q513 416 513 452V461H522V230H513V238Q513 275 489.0 299.0Q465 323 429 324H269V43H464Q537 43 586.5 85.0Q636 127 660 204H670L623 0H42V10Z"/>
    <path transform="translate(3439 0)" d="M955 -198Q930 -198 906 -194Q809 -179 741.0 -120.5Q673 -62 643 25Q549 -14 440 -14Q260 -14 145.0 88.0Q30 190 30 350Q30 457 82.5 540.0Q135 623 230.0 668.5Q325 714 447 714Q527 714 602.0 698.5Q677 683 723 660L725 488H717Q693 579 624.5 625.5Q556 672 460 672Q342 672 267.5 581.5Q193 491 193.0 348.5Q193 206 266.0 117.0Q339 28 454 28Q516 28 561.5 55.0Q607 82 623 127V279Q623 301 610.0 313.0Q597 325 573 325H557V335H838V325H823Q798 325 785.0 313.0Q772 301 773 280V121Q774 55 798 -2Q851 -124 974 -154Q1007 -162 1042.5 -162.0Q1078 -162 1115 -154L1117 -164Q1031 -198 955 -198Z"/>
    <path transform="translate(4540 0)" d="M1085 -170Q1007 -209 919 -209Q841 -209 777 -185Q639 -134 542 14Q517 50 449.0 152.0Q381 254 361 282Q326 337 305 342V352Q306 352 307.5 352.0Q309 352 311.0 352.0Q313 352 315.0 352.0Q317 352 320.0 352.0Q323 352 325 352Q376 352 419 375Q484 411 484 508Q484 579 444.0 617.5Q404 656 348 656H272V73Q272 47 291.0 28.5Q310 10 336 10H349V0H45V10H58Q83 10 102.0 28.0Q121 46 122 72V627Q121 653 102.5 671.5Q84 690 58 690H45V700H388Q517 700 588 641Q644 595 644.0 511.0Q644 427 589.5 374.5Q535 322 465 322Q459 322 452 323Q493 301 520.5 274.0Q548 247 568.5 223.0Q589 199 603.5 180.5Q618 162 642.0 131.5Q666 101 692.0 68.0Q718 35 749.5 0.5Q781 -34 819.5 -65.0Q858 -96 898 -116Q983 -159 1085 -160Z"/>
    <path transform="translate(5511 0)" d="M404 10H417V0H113V10H126Q152 10 170.5 28.5Q189 47 190 73V659L95 655Q1 651 1 585Q1 558 19.5 539.5Q38 521 71 521Q74 521 77 521V515Q57 508 43 508Q-2 508 -26 540Q-43 562 -43 590Q-43 634 -8.5 662.5Q26 691 98 696Q111 697 182 700Q344 706 417 720L419 710Q376 703 358.5 681.0Q341 659 340 616V73Q341 47 359.5 28.5Q378 10 404 10Z"/>
    <path transform="translate(6207 0)" d="M-96 766Q-39 790 3.0 790.0Q45 790 77.0 782.0Q109 774 142.5 755.5Q176 737 205 710Q261 657 300 590L500 215L790 714H799L903 126Q927 -10 986 -90Q1045 -171 1148 -171Q1155 -171 1161 -171V-181Q1106 -196 1053 -196Q945 -196 856 -111Q770 -30 739 126L690 417L502 91Q464 28 463 -20H454L205 452L156 52Q153 29 176 15Q185 9 195 9H211V0H2V10H18Q44 10 64.5 25.5Q85 41 90 68L158 545Q113 625 55 687Q-10 757 -81 757Q-88 757 -94 756Z"/>
    <path transform="translate(7415 0)" d="M332 447Q314 485 314.0 519.5Q314 554 323.0 583.5Q332 613 353.0 641.5Q374 670 412 689Q464 716 537 716Q633 716 719 667Q832 603 876 490Q901 428 901 357Q901 190 780.5 88.0Q660 -14 466.5 -14.0Q273 -14 151.5 88.0Q30 190 30 356Q30 480 100.5 571.5Q171 663 291 696L297 687Q246 644 220.0 561.0Q194 478 194 382Q194 220 269.0 124.0Q344 28 465.5 28.0Q587 28 661.5 118.5Q736 209 736 358Q736 448 708.5 520.5Q681 593 629.0 632.5Q577 672 513 672Q442 672 398 635Q336 582 336 500Q336 474 343 447Z"/>
    <path transform="translate(8585 0)" d="M404 10H417V0H113V10H126Q152 10 170.5 28.5Q189 47 190 73V659L95 655Q1 651 1 585Q1 558 19.5 539.5Q38 521 71 521Q74 521 77 521V515Q57 508 43 508Q-2 508 -26 540Q-43 562 -43 590Q-43 634 -8.5 662.5Q26 691 98 696Q111 697 182 700Q344 706 417 720L419 710Q376 703 358.5 681.0Q341 659 340 616V73Q341 47 359.5 28.5Q378 10 404 10Z"/>
    <path transform="translate(9281 0)" d="M1085 -170Q1007 -209 919 -209Q841 -209 777 -185Q639 -134 542 14Q517 50 449.0 152.0Q381 254 361 282Q326 337 305 342V352Q306 352 307.5 352.0Q309 352 311.0 352.0Q313 352 315.0 352.0Q317 352 320.0 352.0Q323 352 325 352Q376 352 419 375Q484 411 484 508Q484 579 444.0 617.5Q404 656 348 656H272V73Q272 47 291.0 28.5Q310 10 336 10H349V0H45V10H58Q83 10 102.0 28.0Q121 46 122 72V627Q121 653 102.5 671.5Q84 690 58 690H45V700H388Q517 700 588 641Q644 595 644.0 511.0Q644 427 589.5 374.5Q535 322 465 322Q459 322 452 323Q493 301 520.5 274.0Q548 247 568.5 223.0Q589 199 603.5 180.5Q618 162 642.0 131.5Q666 101 692.0 68.0Q718 35 749.5 0.5Q781 -34 819.5 -65.0Q858 -96 898 -116Q983 -159 1085 -160Z"/>
    <path transform="translate(10252 0)" d="M55 10Q81 10 99.5 28.5Q118 47 119 73V630Q116 665 86 682Q71 690 55 690H42V700H323Q367 700 400.0 707.0Q433 714 443 718V543H432V555Q433 600 406.5 627.5Q380 655 335 657H269V366H428Q465 367 489.0 391.5Q513 416 513 452V461H522V230H513V238Q513 275 489.0 299.0Q465 323 429 324H269V43H464Q537 43 586.5 85.0Q636 127 660 204H670L623 0H42V10Z"/>
  </g></g>
</svg>